<svg xmlns="http://www.w3.org/2000/svg" width="292" height="299" fill="none" viewBox="0 0 292 299">
  <circle cx="147" cy="100" r="98.5" stroke="#fff" stroke-width="3"/>
  <path stroke="#fff" stroke-width="3" d="m.005 133.5 291 1"/>
  <path fill="#fff" d="M46.033 239.56c0-1.224-.168-2.124-.504-2.7-.336-.6-1.008-.9-2.016-.9h-.72v-.72h9.432c4.656 0 8.172 1.032 10.548 3.096 2.4 2.064 3.6 4.944 3.6 8.64 0 2.376-.504 4.476-1.512 6.3-1.008 1.8-2.508 3.204-4.5 4.212-1.968 1.008-4.368 1.512-7.2 1.512h-7.128v-19.44Zm7.02 18.18c1.776 0 3.372-.432 4.788-1.296 1.44-.888 2.568-2.124 3.384-3.708.816-1.608 1.224-3.48 1.224-5.616 0-2.088-.408-3.936-1.224-5.544-.792-1.608-1.908-2.856-3.348-3.744-1.44-.888-3.072-1.332-4.896-1.332-1.152 0-2.352.192-3.6.576v20.196c1.344.312 2.568.468 3.672.468ZM74.395 259c-.888 0-1.56-.108-2.016-.324-.432-.24-.744-.66-.936-1.26-.192-.6-.288-1.512-.288-2.736v-19.44h3.24v19.44c0 1.224.168 2.136.504 2.736.336.576 1.008.864 2.016.864h.72v.72h-3.24Zm16.32.72c-2.232 0-4.2-.54-5.904-1.62-1.68-1.08-2.976-2.544-3.888-4.392-.912-1.872-1.368-3.948-1.368-6.228 0-2.352.492-4.524 1.476-6.516 1.008-1.992 2.364-3.564 4.068-4.716 1.728-1.152 3.6-1.728 5.616-1.728 1.92 0 3.6.276 5.04.828 1.464.528 2.544 1.212 3.24 2.052.408.504.66 1.176.756 2.016.096.816.144 1.944.144 3.384h-.72c-.456-2.328-1.296-4.044-2.52-5.148-1.224-1.128-2.844-1.692-4.86-1.692-2.592 0-4.68.912-6.264 2.736-1.584 1.824-2.376 4.752-2.376 8.784 0 1.896.3 3.66.9 5.292.624 1.632 1.584 2.964 2.88 3.996 1.296 1.008 2.916 1.512 4.86 1.512 1.752 0 3.276-.42 4.572-1.26 1.32-.84 2.496-2.1 3.528-3.78l.72.54c-1.104 2.16-2.472 3.696-4.104 4.608-1.608.888-3.54 1.332-5.796 1.332Zm15.013-20.16c0-1.224-.168-2.124-.504-2.7-.336-.6-1.008-.9-2.016-.9h-.72v-.72h15.336c2.04 0 3.06.96 3.06 2.88v2.7h-.72c0-2.76-1.5-4.14-4.5-4.14h-6.696v9.36h9.72v1.44h-9.72v10.08h6.3c1.656 0 2.952-.3 3.888-.9.936-.6 1.68-1.62 2.232-3.06l.72.18-1.26 3.42c-.432 1.2-1.332 1.8-2.7 1.8h-12.42v-19.44ZM128.546 259h-1.44v-19.44c0-1.152-.252-2.04-.756-2.664-.48-.624-1.308-.936-2.484-.936h-.36v-.72h2.34c1.104 0 2.04.18 2.808.54.768.36 1.452.9 2.052 1.62l12.6 15.66v-17.82h1.44v24.12h-.72l-15.48-19.26V259Zm23.061-19.44c0-1.224-.168-2.124-.504-2.7-.336-.6-1.008-.9-2.016-.9h-.72v-.72h9.432c4.656 0 8.172 1.032 10.548 3.096 2.4 2.064 3.6 4.944 3.6 8.64 0 2.376-.504 4.476-1.512 6.3-1.008 1.8-2.508 3.204-4.5 4.212-1.968 1.008-4.368 1.512-7.2 1.512h-7.128v-19.44Zm7.02 18.18c1.776 0 3.372-.432 4.788-1.296 1.44-.888 2.568-2.124 3.384-3.708.816-1.608 1.224-3.48 1.224-5.616 0-2.088-.408-3.936-1.224-5.544-.792-1.608-1.908-2.856-3.348-3.744-1.44-.888-3.072-1.332-4.896-1.332-1.152 0-2.352.192-3.6.576v20.196c1.344.312 2.568.468 3.672.468Zm36.411 1.44c-1.152 0-2.292-.312-3.42-.936-1.128-.648-2.028-1.896-2.7-3.744l-.9-2.34h-10.08l-2.88 6.84h-1.62l10.08-23.76h1.08l7.92 19.26c.6 1.392 1.164 2.352 1.692 2.88.528.504 1.284.804 2.268.9v.72c-.432.12-.912.18-1.44.18Zm-7.74-8.46-4.32-10.44-4.5 10.44h8.82Zm13.6 8.28h-1.44v-19.44c0-1.152-.252-2.04-.756-2.664-.48-.624-1.308-.936-2.484-.936h-.36v-.72h2.34c1.104 0 2.04.18 2.808.54.768.36 1.452.9 2.052 1.62l12.6 15.66v-17.82h1.44v24.12h-.72l-15.48-19.26V259Zm41.426.18c-1.152 0-2.292-.312-3.42-.936-1.128-.648-2.028-1.896-2.7-3.744l-.9-2.34h-10.08l-2.88 6.84h-1.62l10.08-23.76h1.08l7.92 19.26c.6 1.392 1.164 2.352 1.692 2.88.528.504 1.284.804 2.268.9v.72c-.432.12-.912.18-1.44.18Zm-7.74-8.46-4.32-10.44-4.5 10.44h8.82Zm-129.104 45c-2.232 0-4.2-.54-5.904-1.62-1.68-1.08-2.976-2.544-3.888-4.392-.912-1.872-1.368-3.948-1.368-6.228 0-2.352.492-4.524 1.476-6.516 1.008-1.992 2.364-3.564 4.068-4.716 1.728-1.152 3.6-1.728 5.616-1.728 1.92 0 3.6.276 5.04.828 1.464.528 2.544 1.212 3.24 2.052.408.504.66 1.176.756 2.016.096.816.144 1.944.144 3.384h-.72c-.456-2.328-1.296-4.044-2.52-5.148-1.224-1.128-2.844-1.692-4.86-1.692-2.592 0-4.68.912-6.264 2.736-1.584 1.824-2.376 4.752-2.376 8.784 0 1.896.3 3.66.9 5.292.624 1.632 1.584 2.964 2.88 3.996 1.296 1.008 2.916 1.512 4.86 1.512 1.752 0 3.276-.42 4.572-1.26 1.32-.84 2.496-2.1 3.528-3.78l.72.54c-1.104 2.16-2.472 3.696-4.104 4.608-1.608.888-3.54 1.332-5.796 1.332Zm24.014 0c-2.232 0-4.2-.552-5.904-1.656-1.68-1.104-2.976-2.616-3.888-4.536-.912-1.92-1.368-4.056-1.368-6.408 0-2.352.456-4.488 1.368-6.408.912-1.92 2.208-3.432 3.888-4.536 1.704-1.104 3.672-1.656 5.904-1.656 2.232 0 4.188.552 5.868 1.656 1.704 1.104 3.012 2.616 3.924 4.536.912 1.92 1.368 4.056 1.368 6.408 0 2.352-.456 4.488-1.368 6.408-.912 1.92-2.22 3.432-3.924 4.536-1.68 1.104-3.636 1.656-5.868 1.656Zm0-1.44c1.56 0 2.904-.456 4.032-1.368 1.152-.912 2.028-2.196 2.628-3.852.6-1.68.9-3.66.9-5.94 0-2.28-.3-4.248-.9-5.904-.6-1.68-1.476-2.976-2.628-3.888-1.128-.912-2.472-1.368-4.032-1.368s-2.916.456-4.068 1.368c-1.128.912-1.992 2.208-2.592 3.888-.6 1.656-.9 3.624-.9 5.904s.3 4.26.9 5.94c.6 1.656 1.464 2.94 2.592 3.852 1.152.912 2.508 1.368 4.068 1.368Zm16.383-18.72c0-1.224-.168-2.124-.504-2.7-.336-.6-1.008-.9-2.016-.9h-.72v-.72h14.364c2.04 0 3.06.96 3.06 2.88v2.7h-.72c0-2.76-1.5-4.14-4.5-4.14h-5.724v9.54h8.136v1.44h-8.136V295h-3.24v-19.44Zm18.984 0c0-1.224-.168-2.124-.504-2.7-.336-.6-1.008-.9-2.016-.9h-.72v-.72h14.364c2.04 0 3.06.96 3.06 2.88v2.7h-.72c0-2.76-1.5-4.14-4.5-4.14h-5.724v9.54h8.136v1.44h-8.136V295h-3.24v-19.44Zm18.984 0c0-1.224-.168-2.124-.504-2.7-.336-.6-1.008-.9-2.016-.9h-.72v-.72h15.336c2.04 0 3.06.96 3.06 2.88v2.7h-.72c0-2.76-1.5-4.14-4.5-4.14h-6.696v9.36h9.72v1.44h-9.72v10.08h6.3c1.656 0 2.952-.3 3.888-.9.936-.6 1.68-1.62 2.232-3.06l.72.18-1.26 3.42c-.432 1.2-1.332 1.8-2.7 1.8h-12.42v-19.44Z"/>
</svg>
