<svg xmlns="http://www.w3.org/2000/svg" width="286" height="269" fill="none" viewBox="0 0 286 269">
  <path fill="#EBEBEB" d="m31.12 182.298-8.832.188-4.48.074h-4.804v-.303l-.034-7.528v-.336h.343l8.908.041c2.966 0 5.933.08 8.907.114h.188v.181c0 1.279-.06 2.55-.088 3.801l-.107 3.768Zm0 0-.1-3.801c0-1.258-.074-2.496-.088-3.727l.189.182c-2.974 0-5.94.107-8.907.114l-8.907.04.336-.336-.04 7.528-.296-.303c1.466 0 2.926 0 4.4.04l4.426.074 8.988.189Zm-9.942 9.492-8.827.209-4.48.074c-1.5.033-3 0-4.507.033H3.06v-8.18h.336l8.907.04c2.974 0 5.94.074 8.908.115h.188v.181c0 1.278-.06 2.55-.088 3.801l-.134 3.727Zm0 0-.094-3.828c0-1.251-.074-2.489-.088-3.72l.182.182c-2.967.033-5.934.107-8.907.114l-8.907.061.336-.337-.034 7.528-.302-.303c1.473 0 2.933 0 4.406.041l4.427.074 8.98.188Zm20.336 0-8.853.209-4.48.074c-1.5.033-3 0-4.508.033h-.295v-.302l-.04-7.528v-.35h.335l8.908.04c2.973 0 5.94.074 8.907.115h.188v.181c0 1.278-.06 2.55-.087 3.801l-.075 3.727Zm0 0-.107-3.828c0-1.251-.074-2.489-.088-3.72l.182.182c-2.967.033-5.933.107-8.907.114l-8.894.061.337-.337-.034 7.528-.303-.303c1.474 0 2.934 0 4.407.041l4.426.074 8.981.188Zm90.571-89.44-8.826.188-4.487.074c-1.494.034-3.001 0-4.501.041h-.296v-.303l-.034-7.528v-.336h.337l8.907.04c2.966 0 5.94.08 8.907.114h.188v.182c0 1.278-.054 2.55-.087 3.8l-.108 3.728Zm0 0-.094-3.801c-.034-1.258-.074-2.496-.088-3.727l.182.182c-2.967.033-5.94.107-8.907.114l-8.907.04.336-.336-.033 7.528-.303-.303c1.466 0 2.933 0 4.406.04l4.42.074 8.988.189Zm145.298 89.44-8.827.188-4.48.074c-1.5.034-3.007 0-4.507.034h-.296v-.303l-.041-7.528v-.329h.337l8.907.04c2.973 0 5.94.074 8.907.115h.188v.181c0 1.278-.054 2.55-.087 3.801l-.101 3.727Zm0 0-.095-3.808c-.033-1.251-.074-2.489-.087-3.72l.182.182c-2.967.033-5.934.107-8.907.114l-8.907.041.336-.337-.034 7.528-.302-.303c1.466 0 2.933 0 4.406.041l4.427.074 8.981.188Zm-9.937-180.179-8.826.189-4.487.074c-1.494 0-3.001 0-4.501.04h-.296v-.303l-.054-7.528v-.336h.337l8.907.047c2.966 0 5.94.074 8.907.108h.188v.181c0 1.279-.054 2.55-.087 3.808l-.088 3.72Zm0 0-.094-3.8c-.034-1.252-.074-2.49-.088-3.728l.182.222c-2.967 0-5.94.108-8.907.108l-8.907.04.336-.336v7.528l-.302-.296h4.406l4.42.074 8.954.188Zm9.937 9.513-8.827.188-4.48.074c-1.5 0-3.007 0-4.507.04h-.296v-.302l-.041-7.528v-.337h.337l8.907.047c2.973 0 5.94.075 8.907.108h.188v.182c0 1.278-.054 2.55-.087 3.808l-.101 3.72Zm0 0-.095-3.801c-.033-1.252-.074-2.496-.087-3.727l.182.188c-2.967 0-5.934.108-8.907.108l-8.907.04.336-.336-.034 7.528-.302-.296h4.406l4.427.074 8.981.222ZM31.12 11.611l-8.832.189-4.48.074c-1.494 0-3.001 0-4.501.04h-.303v-.303l-.034-7.528v-.336h.343l8.908.047c2.966 0 5.933.074 8.907.108h.188v.181c0 1.279-.06 2.55-.088 3.808l-.107 3.72Zm0 0-.1-3.8c0-1.252-.074-2.49-.088-3.728l.189.189c-2.974 0-5.94.107-8.907.107l-8.907.04.336-.336-.04 7.528-.296-.296h4.4l4.426.074 8.988.222Z"/>
  <path fill="#EBEBEB" d="M23.156 269h72.319V94.829h-72.32V269Z"/>
  <path fill="#DBDBDB" d="M20.31 94.829h78.017v-3.02H20.31v3.02Z"/>
  <path fill="#EBEBEB" d="M.007 94.829H20.31v-3.02H.007v3.02Z"/>
  <path fill="#DBDBDB" d="M3.216 269h19.94V94.829H3.215V269Z"/>
  <path fill="#C7C7C7" d="M89.171 230.028H29.486v-26.122h59.685v26.122Zm-59.49-.168h59.322v-25.752H29.654l.027 25.752Z"/>
  <path fill="#C7C7C7" d="M56.766 216.708h8.994v-5.166h-8.995v5.166Z"/>
  <path fill="#C7C7C7" d="M63.19 216.406h-9.162v-4.555h9.162v4.555Zm-9.001-.189h8.826v-4.218H54.19v4.218Zm34.982 46.607H29.486v-26.122h59.685v26.122Zm-59.517-.188h59.322V236.87H29.654v25.766Z"/>
  <path fill="#C7C7C7" d="M56.766 249.511h8.994v-5.167h-8.995v5.167Z"/>
  <path fill="#C7C7C7" d="M63.19 249.181h-9.162v-4.554h9.162v4.554Zm-9.001-.148h8.826v-4.218H54.19v4.218Zm34.982-51.794H29.486v-26.095h59.685v26.095Zm-59.49-.168h59.322v-25.793H29.654l.027 25.793Z"/>
  <path fill="#C7C7C7" d="M56.766 183.919h8.994v-5.167h-8.995v5.167Z"/>
  <path fill="#C7C7C7" d="M63.19 183.616h-9.162v-4.561h9.162v4.561Zm-9.001-.168h8.826v-4.231H54.19v4.231Zm34.982-19.032H29.486v-26.095h59.685v26.095Zm-59.49-.168h59.322v-25.759H29.654l.027 25.759Z"/>
  <path fill="#C7C7C7" d="M56.766 151.13h8.994v-5.167h-8.995v5.167Z"/>
  <path fill="#C7C7C7" d="M63.19 150.82h-9.162v-4.567h9.162v4.567Zm-9.001-.168h8.826v-4.218H54.19v4.218Z"/>
  <path fill="#A6A6A6" d="M29.567 131.661h52.77v-25.954h-52.77v25.954Z"/>
  <path fill="#C7C7C7" d="M75.83 99.06H40.782v25.403h35.05V99.06Zm-12.384-2.63H75.83v2.63H62.733l.713-2.63Z"/>
  <path fill="#A6A6A6" d="M40.869 124.463h35.05l2.704-23.297h-35.05l-2.704 23.297ZM66.52 98.75h12.385l-.282 2.416H65.53l.99-2.415Z"/>
  <path fill="#EBEBEB" d="M58.474 131.661h59.497v-25.954H58.474v25.954Z"/>
  <path fill="#C7C7C7" d="M118.052 131.748H58.393v-26.129h59.659v26.129Zm-59.49-.168h59.321v-25.792H58.562v25.792Z"/>
  <path fill="#C7C7C7" d="M85.054 118.428h8.995v-5.166h-8.995v5.166Z"/>
  <path fill="#C7C7C7" d="M91.472 118.126h-9.156v-4.555h9.156v4.555Zm-8.988-.169h8.82v-4.218h-8.82v4.218Z"/>
  <path fill="#DBDBDB" d="M29.573 131.661h28.794v-22.066H29.574v22.066Z"/>
  <path fill="#EBEBEB" d="M55.568 64.502H21.063v27.32h34.505v-27.32Z"/>
  <path fill="#EBEBEB" d="M55.568 64.502H21.063v27.32h34.505v-27.32Z"/>
  <path fill="#C7C7C7" d="M68.686 64.515H55.575v27.32h13.111v-27.32ZM21.063 78.152l34.512.013-26.95.693-7.562-.706Zm34.505 10.373-34.505-.013 26.943.713 7.562-.7ZM21.07 70.516l21.857.013-19.428.566-2.429-.579Zm34.498 13.993-21.857-.014 19.428.586 2.429-.572ZM29.351 67.482l24.65.007-4.11.343-20.54-.35ZM24.42 81.085l24.65.013-4.104.337-20.546-.35Z"/>
  <path fill="#EBEBEB" d="m39.584 73.126 15.99.007 2.86.922-18.85-.929Z"/>
  <path fill="#EBEBEB" d="m39.584 73.126 15.99.007 2.86.922-18.85-.929Z"/>
  <path fill="#DBDBDB" d="m16.664 73.113 15.99.007 2.86.921-18.85-.928Zm20.511 12.291-15.99-.007-2.86.915 18.85-.908Z"/>
  <path fill="#C7C7C7" d="m55.575 82.296 12.835.006 2.86.915-15.695-.921Zm4.48-4.124 9.957.006-1.326-.753-8.63.747Z"/>
  <path fill="#DBDBDB" d="M196.385 23.97H156.62v25.96h39.765V23.97Z"/>
  <path fill="#EBEBEB" d="M196.385 51.457H156.62v25.961h39.765v-25.96Z"/>
  <path fill="#fff" d="M164.423 56.45h-3.868v3.867h3.868V56.45Z"/>
  <path fill="#C7C7C7" d="M169.092 56.45h-3.868v3.867h3.868V56.45Z"/>
  <path fill="#fff" d="M173.768 56.45h-3.869v3.867h3.869V56.45Zm4.668 0h-3.868v3.867h3.868V56.45Zm4.676 0h-3.868v3.867h3.868V56.45Zm4.669 0h-3.869v3.867h3.869V56.45Zm4.669 0h-3.869v3.867h3.869V56.45Zm-28.027 4.701h-3.868v3.869h3.868v-3.868Zm4.669 0h-3.868v3.869h3.868v-3.868Zm4.676 0h-3.869v3.869h3.869v-3.868Zm4.668 0h-3.868v3.869h3.868v-3.868Z"/>
  <path fill="#C7C7C7" d="M183.112 61.151h-3.868v3.869h3.868v-3.868Z"/>
  <path fill="#fff" d="M187.781 61.151h-3.869v3.869h3.869v-3.868Zm4.669 0h-3.869v3.869h3.869v-3.868Zm-28.027 4.703h-3.868v3.868h3.868v-3.868Zm4.669 0h-3.868v3.868h3.868v-3.868Zm4.676 0h-3.869v3.868h3.869v-3.868Zm4.668 0h-3.868v3.868h3.868v-3.868Zm4.676 0h-3.868v3.868h3.868v-3.868Zm4.669 0h-3.869v3.868h3.869v-3.868Zm4.669 0h-3.869v3.868h3.869v-3.868Zm-28.027 4.709h-3.868v3.868h3.868v-3.868Zm4.669 0h-3.868v3.868h3.868v-3.868Z"/>
  <path fill="#C7C7C7" d="M173.768 70.563h-3.869v3.868h3.869v-3.868Z"/>
  <path fill="#fff" d="M178.436 70.563h-3.868v3.868h3.868v-3.868Zm4.676 0h-3.868v3.868h3.868v-3.868Zm4.669 0h-3.869v3.868h3.869v-3.868Zm4.669 0h-3.869v3.868h3.869v-3.868Z"/>
  <path fill="#C7C7C7" d="M159.687 48.7h-1.507v3.988h1.507V48.7Zm3.512 0h-1.507v3.988h1.507V48.7Zm3.512 0h-1.507v3.988h1.507V48.7Zm3.518 0h-1.507v3.988h1.507V48.7Zm3.512 0h-1.507v3.988h1.507V48.7Zm3.511 0h-1.507v3.988h1.507V48.7Zm3.519 0h-1.507v3.988h1.507V48.7Zm3.512 0h-1.507v3.988h1.507V48.7Zm3.511 0h-1.507v3.988h1.507V48.7Zm3.519 0h-1.507v3.988h1.507V48.7Zm3.511 0h-1.507v3.988h1.507V48.7Z"/>
  <path fill="#263238" d="M176.506 27.26a.632.632 0 1 0 0-1.265.632.632 0 0 0 0 1.264ZM0 268.664l35.076-.162 35.077-.06 70.146-.115 70.146.115 35.077.053 35.076.169-35.076.161-35.077.061-70.146.114-70.146-.114-35.077-.061L0 268.664Z"/>
  <path fill="#1F5967" d="M248.334 198.403a27.949 27.949 0 0 1-.545 10.723 29.33 29.33 0 0 1-1.642 4.743c-.854 1.958-1.742 3.875-1.533 6.021.208.142-.498.121-.525-.087-5.739-3.27-13.092-3.868-17.491-9.21-2.092-2.529-3.142-5.732-3.647-8.941-.544-3.491-.672-7.359.209-10.797.76-2.913 2.462-5.718 5.194-7.144 2.731-1.427 6.518-1.346 9.492-.424 6.391 1.984 9.58 8.913 10.488 15.116Z"/>
  <path fill="#263238" d="M251.301 240.873c-.787-2.61-1.568-5.221-2.375-7.824-1.574-5.099-3.209-10.179-5.019-15.197a228.078 228.078 0 0 0-3.437-8.941 55.78 55.78 0 0 1 .672-5.543c.485-2.227 1.178-4.373 1.83-6.553.034-.127-.181-.201-.235-.074-1.285 3.001-2.967 6.835-3.007 10.387a164.257 164.257 0 0 0-4.514-9.869 42.535 42.535 0 0 1 .255-8.22c0-.128-.175-.162-.195-.041a29.044 29.044 0 0 0-.558 7.259 146.353 146.353 0 0 0-3.916-7.212c-.127-.208-.423 0-.316.216 2.16 4.157 4.158 8.395 6.055 12.687a27.49 27.49 0 0 0-8.995-5.207c-.141-.053-.249.155-.107.216a32.717 32.717 0 0 1 9.734 6.478 260.122 260.122 0 0 1 3.855 9.506c-3.592-3.519-8.503-5.833-13.253-7.077-.161-.041-.208.208-.054.255 5.503 1.655 9.775 4.77 13.96 8.517.484 1.292.962 2.59 1.426 3.882a480.917 480.917 0 0 1 5.065 14.84c.767 2.389 1.528 4.77 2.274 7.165.808 2.57 1.433 5.288 2.476 7.777.101.235.525.182.471-.108a75.002 75.002 0 0 0-2.092-7.319Z"/>
  <path fill="#263238" d="M241.761 193.378a14.181 14.181 0 0 0-2.065 5.153c0 .011.004.021.012.028a.04.04 0 0 0 .057 0 44.368 44.368 0 0 1 2.252-5.08c.087-.135-.135-.249-.256-.101Zm-10.239 11.954a15.126 15.126 0 0 0-5.146-1.735c-.047 0-.074.067 0 .087.827.343 1.695.579 2.536.902.841.322 1.662.719 2.509 1.015a.146.146 0 0 0 .156-.095.146.146 0 0 0-.055-.174Zm-2.879-14.383a10.542 10.542 0 0 0-1.655-1.022.096.096 0 0 0-.058.001.097.097 0 0 0-.063.092.1.1 0 0 0 .02.055c.509.404 1.057.758 1.635 1.056.107.067.222-.108.121-.182Z"/>
  <path fill="#1F5967" d="M267.675 217.886c-4.131 1.231-8.288 2.361-12.419 3.578-.356.101-7.339-13.279-4.816-20.182a22.493 22.493 0 0 1 14.046-13.32c2.947-1.002 6.573-1.85 9.694-1.157 2.772.612 4.71 2.879 5.631 5.483 1.225 3.545.814 7.77.148 11.389a19.955 19.955 0 0 1-4.036 9.291c-2.227 2.61-5.026 3.962-8.248 4.918Z"/>
  <path fill="#263238" d="M273.669 205.164a54.501 54.501 0 0 1-8.106 3.189 33.832 33.832 0 0 0-5.382 1.964c1.749-3.895 3.659-7.703 5.691-11.477 2.691-.773 5.483-1.977 7.494-3.868a.112.112 0 0 0 .04-.078.114.114 0 0 0-.104-.123.116.116 0 0 0-.084.026c-2.206 1.561-4.635 2.489-7.07 3.546a427.077 427.077 0 0 1 1.668-3.041c.162-.283-.229-.565-.417-.289a86.667 86.667 0 0 0-5.873 9.862 45.066 45.066 0 0 1-.424-9.035.063.063 0 0 0-.017-.043.064.064 0 0 0-.043-.018.062.062 0 0 0-.043.018.064.064 0 0 0-.018.043 30.17 30.17 0 0 0 .101 9.93 113.084 113.084 0 0 0-3.956 8.853c-.47-1.803-1.083-3.572-1.493-5.382a24.953 24.953 0 0 1-.592-7.959c0-.074-.108-.08-.121 0a28.05 28.05 0 0 0 1.736 14.599c-.673 1.809-1.346 3.619-1.951 5.435a107.977 107.977 0 0 0-5.483 28.672c.008.04.029.076.06.102a.177.177 0 0 0 .222 0 .175.175 0 0 0 .061-.102 142.202 142.202 0 0 1 6.162-28.335 119.907 119.907 0 0 1 4.09-10.528c2.442-.727 4.871-1.702 7.273-2.537a22.605 22.605 0 0 0 6.693-3.283c.054-.06-.033-.181-.114-.141Z"/>
  <path fill="#263238" d="M277.537 201.276c-2.522.901-4.917 2.159-7.447 3.067-.114.047-.047.236.074.209 2.691-.552 5.321-1.379 7.474-3.128.061-.068-.033-.175-.101-.148Zm-20.653-5.449c0-.135-.168-.216-.208-.075-.673 2.328-1.171 4.804-.498 7.185 0 .088.175.095.182 0 .121-2.415-.014-4.749.524-7.11Zm10.441-5.382a6.174 6.174 0 0 0-1.096 3.962c0 .087.148.141.168.034.309-1.346.827-2.55 1.231-3.842a.18.18 0 0 0-.011-.114.181.181 0 0 0-.08-.082.17.17 0 0 0-.113-.016.18.18 0 0 0-.099.058Z"/>
  <path fill="#1F5967" d="M218.525 223.792c1.211 3.848 4.09 9.163 8.645 9.203 2.96 0 5.933-.323 8.893-.363 3.176-.054 6.351-.04 9.519.148.263 0-.376-9.499-8.005-14.128-2.133-1.298-4.75-1.708-7.172-2.233a32.971 32.971 0 0 0-8.469-.875c-1.756.068-3.209.438-3.835 2.234-.625 1.796-.161 4.184.424 6.014Z"/>
  <path fill="#263238" d="M221.801 218.982c1.857.478 3.727 1.023 5.584 1.615a20.12 20.12 0 0 0-1.534-1.501c-.801-.672-1.682-1.197-2.536-1.776-.074-.047 0-.188.06-.148a10.485 10.485 0 0 1 4.501 3.573 97.495 97.495 0 0 1 6.821 2.482 25.813 25.813 0 0 1 4.367 2.301 17.591 17.591 0 0 0-1.581-2.752c-1.01-1.312-2.382-2.018-3.707-2.973a.115.115 0 0 1-.035-.071.12.12 0 0 1 .077-.129.125.125 0 0 1 .079-.002 10.855 10.855 0 0 1 5.947 6.452 25.484 25.484 0 0 1 4.326 3.922c5.038 5.731 9.014 13.353 9.028 21.137 0 .182-.296.235-.33.04a43.152 43.152 0 0 0-9.64-20.659c-.364-.426-.734-.83-1.11-1.211a34.449 34.449 0 0 0-4.171-.31c-1.622 0-3.229.236-4.851.37-2.691.215-5.604.249-8.005-1.09-.101-.06-.034-.249.087-.201 5.382 1.944 10.966-.525 16.328.672a24.922 24.922 0 0 0-7.892-5.106l-.491-.195c-3.431.41-7.057 1.305-10.407.188a.08.08 0 0 1-.048-.039.08.08 0 0 1 .034-.109.08.08 0 0 1 .061-.006c3.229.807 6.331-.209 9.519-.37-3.471-1.346-7.01-2.429-10.494-3.774-.296-.142-.303-.404.013-.33Z"/>
  <path fill="#263238" d="M220.288 222.359c1.657.222 3.326.35 4.998.384.04 0 .054.06 0 .067-1.683.311-3.416.2-5.046-.323-.067-.02-.033-.141.048-.128Zm11.288-3.296a8.155 8.155 0 0 1 2.476 1.722c.087.081 0 .235-.121.161a34.011 34.011 0 0 0-1.292-.874 11.728 11.728 0 0 1-1.204-.76.142.142 0 0 1-.043-.085.145.145 0 0 1 .017-.094.147.147 0 0 1 .167-.07Z"/>
  <path fill="#1F5967" d="M258.499 231.441c-.054.128.128.249.195.114.03.041.073.069.121.081a78.374 78.374 0 0 0 9.304 1.615c2.516.222 5.422.363 7.629-1.097 2.994-1.984 4.958-7.285 3.364-10.656-1.911-3.996-7.676-1.823-10.569-.404a21.24 21.24 0 0 0-10.044 10.347Z"/>
  <path fill="#263238" d="M256.265 233.291a29.779 29.779 0 0 1 5.564-4.231 18.908 18.908 0 0 1 5.637-5.746c.108-.08.202.095.101.175a25.349 25.349 0 0 0-4.749 4.999 51.307 51.307 0 0 1 6.976-3.175 9.235 9.235 0 0 1 3.747-3.754c.034 0 .074 0 .041.047a15.38 15.38 0 0 0-3.364 3.552 118.94 118.94 0 0 1 4.279-1.494c.127-.04.174.155.053.202-2.543.996-5.153 2.018-7.676 3.256a29.71 29.71 0 0 0 9.298 0c.087 0 .121.108.033.128a18.262 18.262 0 0 1-9.862.148 46.081 46.081 0 0 0-4.676 2.624 11.461 11.461 0 0 1 3.781.309c2.179.506 4.41.759 6.647.754.081 0 .101.134 0 .148-3.855.672-7.501-1.09-11.322-.633a28.195 28.195 0 0 0-9.782 11.437c-1.608 3.276-2.482 6.727-3.781 10.124a.12.12 0 0 1-.151.084.115.115 0 0 1-.073-.058.12.12 0 0 1-.011-.093c1.11-6.694 4.433-14.047 9.29-18.803Z"/>
  <path fill="#263238" d="M267.89 224.149c.255-.456.59-.861.989-1.198a3.915 3.915 0 0 1 1.137-.854c.041 0 .061.04.041.067-.317.357-.761.619-1.104.962-.343.343-.625.754-.975 1.09a.056.056 0 0 1-.078.01.058.058 0 0 1-.021-.037.052.052 0 0 1 .011-.04Zm6.358 2.072c.572-.148 1.177-.135 1.756-.256a16.67 16.67 0 0 0 1.708-.511c.074 0 .115.087.054.128a5.66 5.66 0 0 1-3.518.814.087.087 0 0 1-.043-.035.093.093 0 0 1-.017-.053c0-.019.006-.037.017-.053a.091.091 0 0 1 .043-.034Z"/>
  <path fill="#37474F" d="m240.382 243.853.505 5.745L242.602 269h15.197l2.146-19.402.633-5.745h-20.196Z"/>
  <path fill="#263238" d="m240.382 243.853.505 5.745h19.058l.633-5.745h-20.196Z"/>
  <path fill="#37474F" d="M238.882 246.948h23.203v-4.662h-23.203v4.662Z"/>
  <path fill="#1F5967" d="M72.312 51.935c14.056 0 25.45-11.394 25.45-25.45 0-14.055-11.394-25.45-25.45-25.45-14.055 0-25.45 11.395-25.45 25.45 0 14.056 11.395 25.45 25.45 25.45Z"/>
  <path fill="#000" d="M76.425 51.157C89.74 49.53 99.215 37.42 97.59 24.107 95.964 10.793 83.853 1.317 70.54 2.943c-13.314 1.625-22.79 13.736-21.164 27.05C51 43.306 63.11 52.782 76.425 51.157Z" opacity=".1"/>
  <path fill="#fff" d="M74.9 49.767c12.541-.784 22.072-11.587 21.287-24.128C95.402 13.1 84.6 3.568 72.059 4.352 59.518 5.137 49.987 15.94 50.772 28.48c.785 12.542 11.587 22.072 24.128 21.287Z"/>
  <path fill="#EBEBEB" d="M95.717 22.227c-10.36 6.277-27.387 16.576-36.906 22.2a22.792 22.792 0 0 1-6.217-8.362l31.478-29.17a22.793 22.793 0 0 1 11.645 15.332Zm.498 5.624a22.517 22.517 0 0 1-1.507 7.4l-28.37 13.415a22.32 22.32 0 0 1-3.585-1.541c8.57-4.958 24.232-13.966 33.462-19.274Z" opacity=".5"/>
  <path fill="#263238" d="M73.698 5.954h-.437v3.45h.437v-3.45ZM63.119 8.67l-.379.219 1.726 2.988.378-.218L63.12 8.67Zm-7.809 7.64-.22.378 2.99 1.726.218-.379-2.988-1.726Zm.52 10.525h-3.45v.438h3.45v-.438Zm2.258 8.858L55.1 37.42l.219.379 2.989-1.726-.219-.379Zm6.381 6.541-1.724 2.99.379.218 1.724-2.99-.379-.218Zm9.229 2.469h-.437v3.451h.437v-3.45Zm8.797-2.472-.379.219 1.725 2.988.38-.218-1.726-2.989Zm6.372-6.545-.219.379 2.989 1.725.219-.378-2.99-1.726Zm5.713-8.851h-3.451v.438h3.45v-.438Zm-2.938-10.511-2.988 1.726.218.378 2.989-1.725-.219-.379Zm-7.807-7.657-1.724 2.99.379.218 1.724-2.99-.38-.218Z"/>
  <path fill="#1F5967" d="m90.281 37.034-18.668-9.802 1.09-1.863 17.874 11.16-.296.505Z"/>
  <path fill="#455A64" d="m73.288 42.389-.935-16.798 2.16.033-.64 16.772-.585-.007Z"/>
  <path fill="#263238" d="M74.216 27.057a.74.74 0 1 1-.45-.683.733.733 0 0 1 .45.683Z"/>
  <path fill="#455A64" d="M280.215 120.655H174.757v11.147h105.458v-11.147Zm-1.871 11.147h-101.71v3.62h101.71v-3.62Z"/>
  <path fill="#263238" d="M278.344 131.802h-101.71V133h101.71v-1.198Z"/>
  <path fill="#455A64" d="M177.367 269h-2.994l8.712-133.578h7.629L177.367 269Z"/>
  <path fill="#263238" d="m190.714 135.428-.895 8.934H182.5l.585-8.934h7.629Z"/>
  <path fill="#455A64" d="M277.604 269h2.994l-8.705-133.578h-7.636L277.604 269Z"/>
  <path fill="#263238" d="m264.257 135.428.895 8.934h7.319l-.578-8.934h-7.636Z"/>
  <path fill="#DBDBDB" d="m198.88 118.973-10.649.017.002 1.662 10.65-.017-.003-1.662Z"/>
  <path fill="#C7C7C7" d="m198.874 118.98-10.65.017.002 1.096 10.649-.016-.001-1.097Z"/>
  <path fill="#DBDBDB" d="M175.577 114.54a6.06 6.06 0 0 0 6.001 2.556c.371-.07.733-.175 1.083-.316a7.404 7.404 0 0 0 1.507-.794l-1.345-2.018a5.125 5.125 0 0 1-.801.451 3.531 3.531 0 0 1-4.46-1.299c-1.46-2.052-2.018-6.727-.518-8.543.101-.128.525-.344 2.24 0 .323.074.673.148 1.083.262.317.105.644.175.976.208l.04-1.204.121-1.204a5.255 5.255 0 0 1-.511-.134 16.26 16.26 0 0 0-2.422-.498c-1.265-.128-2.59 0-3.397 1.022-2.409 2.987-1.426 8.914.403 11.511Z"/>
  <path fill="#C7C7C7" d="M182.809 113.961c-.253.174-.52.325-.8.451l.673 2.341a7.396 7.396 0 0 0 1.506-.794l-1.379-1.998Zm-4.252-11.914.714 2.57c.323.074.672.148 1.083.262.316.105.643.175.975.209l.041-1.204.121-1.205a4.756 4.756 0 0 1-.512-.134 16.362 16.362 0 0 0-2.422-.498Z"/>
  <path fill="#DBDBDB" d="M207.694 98.865s-1.265 10.851-3.485 15.433c-2.22 4.581-5.281 5.079-7.192 5.085h-6.936c-1.917 0-4.998-.497-7.211-5.058-2.214-4.562-3.512-15.426-3.512-15.426l28.336-.034Z"/>
  <path fill="#1F5967" d="M279.831 120.655h-65.538l2.126-9.99h38.925V98.36h19.738l4.749 22.295Zm4.978-67.865h-72.568l-1.103-4.723h74.768l-1.097 4.722Z"/>
  <path fill="#1F5967" d="m255.344 52.79-5.389 20.229-3.108 3.928h-23.761l-3.101-3.928-5.389-20.23h40.748Z"/>
  <path fill="#1F5967" d="m255.344 52.79-5.389 20.229-3.108 3.928h-23.761l-3.101-3.928-5.389-20.23h40.748Z"/>
  <path fill="#fff" d="m249.955 73.019-3.108 3.928h-23.761l-3.101-3.928h29.97Z" opacity=".3"/>
  <path fill="#fff" d="M226.887 73.019h-3.532l-2.677-20.23h4.44l1.769 20.23Zm2.213 3.928h-3.532l-2.213-3.928h3.532l2.213 3.928Zm.411-3.928h-.915l-1.709-20.23h.854l1.77 20.23Z" opacity=".2"/>
  <path fill="#fff" d="M231.724 76.947h-.915l-2.213-3.928h.915l2.213 3.928Z" opacity=".2"/>
  <path fill="#fff" d="M261.869 103.601h7.757l2.516 11.807h-10.273v-11.807Z" opacity=".3"/>
  <path fill="#263238" d="M268.563 109.508a2.314 2.314 0 1 1-4.629-.012 2.314 2.314 0 0 1 4.629.012Z"/>
  <path fill="#1F5967" d="M255.344 98.36V52.79h27.05l-7.312 45.57h-19.738Z"/>
  <path fill="#fff" d="M261.869 86.722V60.607h10.858l-4.184 26.115h-6.674Z" opacity=".3"/>
  <path fill="#263238" d="M269.834 63.789h-5.388v1.083h5.388v-1.083Zm-1.439 9.431h-3.949v1.084h3.949V73.22Zm-1.595 9.439h-2.354v1.083h2.354v-1.083Z"/>
  <path fill="#000" d="M214.596 52.79h67.798l-.504 3.114-66.917-1.688-.377-1.427Zm40.748 45.57h19.738l.363 1.703-20.101 1.419v-3.121Z" opacity=".1"/>
  <path fill="#455A64" d="M247.533 83.634v.99h-22.146v-.99l2.361-2.119h17.417l2.368 2.12Z"/>
  <path fill="#37474F" d="M247.533 83.634h-22.146v.99h22.146v-.99Z"/>
  <path fill="#37474F" d="M225.387 88.397h-6.896s-5.382 4.918-5.382 10.138v8.591h5.052v3.519h-8.463V98.361c0-9.217 8.228-13.738 8.228-13.738h7.461v3.774Z"/>
  <path fill="#EBEBEB" d="M254.732 100.843v9.822h-36.55v-9.822c0-6.122 7.205-12.425 7.205-12.425v-3.795h24.346l-2.2 2.462v1.346s7.199 6.29 7.199 12.412Z" opacity=".7"/>
  <path fill="#1F5967" d="M253.11 100.877v8.947h-33.3v-8.947a6.99 6.99 0 0 1 .134-1.406h33.032c.091.462.136.934.134 1.406Z"/>
  <path fill="#000" d="M253.11 100.877v8.947h-33.3v-8.947a6.99 6.99 0 0 1 .134-1.406h33.032c.091.462.136.934.134 1.406Z" opacity=".6"/>
  <path fill="#C7C7C7" d="M254.732 107.187h-36.55v3.471h36.55v-3.471Z"/>
  <path fill="#fff" d="M226.234 107.187h-2.879v3.471h2.879v-3.471Zm2.617 0h-1.312v3.471h1.312v-3.471Z" opacity=".2"/>
  <path fill="#fff" d="M223.355 107.187h2.879v-7.266c0-5.617 6.055-11.436 6.055-11.436V84.65h-2.307v3.747s-6.634 6.54-6.634 11.295l.007 7.495Z" opacity=".2"/>
  <path fill="#fff" d="M227.539 107.187h1.312v-7.266c0-5.617 6.055-11.436 6.055-11.436V84.65h-.74v3.747s-6.633 6.54-6.633 11.295l.006 7.495Z" opacity=".2"/>
  <path fill="#C7C7C7" d="m78.192 230.889-46.85 37.775h2.645l54.101-37.775h-9.896Z"/>
  <path fill="#C7C7C7" d="m82.592 230.889-23.149 37.775h2.644l28.37-37.775h-7.865Z"/>
  <path fill="#C7C7C7" d="m93.94 230.889 23.15 37.775h-2.637l-28.37-37.775h7.858Z"/>
  <path fill="#C7C7C7" d="m97.99 230.889 46.85 37.775h-2.644l-54.108-37.775h9.903Z"/>
  <path fill="#1F5967" d="M176.176 217.031v-11.053l-64.334-2.637-33.98-90.732H0l27.549 104.422 65.82 18.473h4.124l78.683-18.473Z"/>
  <path fill="#000" d="M0 112.609h8.907l28.706 95.185 58.232 16.496 80.331-18.312v11.053l-78.683 18.473h-4.124l-65.82-18.473L0 112.609Z" opacity=".1"/>
  <path fill="#EBEBEB" d="M229.316 268.287c-2.072.047-55.912-16.597-57.56-18.527-.181-.216.673-8.187 2.052-14.511.067-.303-19.119-25.443-19.119-25.443l34.72-13.488 16.59 34.376 4.265 8.941s17.962 18.056 19.549 20.37c1.588 2.315 1.581 8.235-.497 8.282Z"/>
  <path fill="#1F5967" d="M230.836 268.59c-2.166.053-58.373-17.101-60.102-19.113-.673-.753.343-4.231 3.074-14.228l36.846 4.433s19.018 17.861 20.68 20.27c1.661 2.408 1.661 8.577-.498 8.638Z"/>
  <path fill="#000" d="M230.836 268.59c-2.166.053-58.373-17.101-60.102-19.113-.673-.753.343-4.231 3.074-14.228l36.846 4.433s19.018 17.861 20.68 20.27c1.661 2.408 1.661 8.577-.498 8.638Z" opacity=".2"/>
  <path fill="#263238" d="M230.715 266.094c-9.351-3.108-47.361-14.76-56.84-17.121-.08 0-.094.033 0 .06 9.203 3.283 47.307 14.625 56.813 17.216.181.053.222-.088.027-.155Zm-2.375-9.271a7.962 7.962 0 0 0-3.232-.375 7.952 7.952 0 0 0-3.112.954 7.675 7.675 0 0 0-3.639 4.386c0 .061.087.094.114.041a9.14 9.14 0 0 1 9.829-4.884.068.068 0 0 0 .039-.013.068.068 0 0 0 .025-.033.075.075 0 0 0 0-.042.073.073 0 0 0-.024-.034Zm-13.879-13.421c-3.753-1.204-8.53-1.211-11.819 1.157-.128.095 0 .276.134.249a54.603 54.603 0 0 1 11.611-.921.256.256 0 0 0 .159-.062.25.25 0 0 0-.085-.423Zm2.564 2.025c-3.754-1.204-8.531-1.211-11.814 1.157-.127.095 0 .276.135.249a54.477 54.477 0 0 1 11.605-.928.242.242 0 0 0 .074-.478Zm2.569 2.019c-3.76-1.205-8.537-1.205-11.82 1.163-.127.095 0 .269.135.249a54.477 54.477 0 0 1 11.605-.928.25.25 0 0 0 .245-.208.241.241 0 0 0-.032-.168.245.245 0 0 0-.133-.108Zm2.564 2.024c-3.754-1.204-8.537-1.204-11.82 1.164-.128.088 0 .269.134.249a54.612 54.612 0 0 1 11.605-.928.25.25 0 0 0 .214-.377.262.262 0 0 0-.133-.108Z"/>
  <path fill="#263238" d="M221.606 234.583c-1.42-2.166-4.299-1.346-5.981-.067a20.683 20.683 0 0 0-6.37 8.611c-.006.015-.007.031-.006.046a.121.121 0 0 0 .016.045.095.095 0 0 0 .033.033.099.099 0 0 0 .044.017c0 .296.249.619.585.511 3.25-1.036 6.855-1.742 9.694-3.747 1.655-1.184 3.337-3.404 1.985-5.449Zm-7.071 6.599c-1.587.552-3.188 1.016-4.756 1.628a61.883 61.883 0 0 1 3.828-4.938 22.85 22.85 0 0 1 2.153-2.125c1.204-.996 5.866-3.021 4.992 1.197-.485 2.328-4.326 3.586-6.217 4.238Z"/>
  <path fill="#263238" d="M199.459 241.647c3.129 1.506 6.802 1.607 10.186 2.092a.482.482 0 0 0 .492-.377.476.476 0 0 0-.001-.222.114.114 0 0 0 .043-.024.115.115 0 0 0 .034-.091.112.112 0 0 0-.017-.046 20.708 20.708 0 0 0-7.709-7.401c-1.87-.988-4.837-1.311-5.887 1.057-.989 2.226 1.036 4.137 2.859 5.012Zm-1.621-2.839c-1.561-4.037 3.364-2.792 4.709-2.019a24.013 24.013 0 0 1 2.476 1.736 62.218 62.218 0 0 1 4.595 4.238c-1.648-.336-3.303-.538-4.965-.814-1.958-.323-5.954-.928-6.815-3.141Zm9.883-6.506-38.232 5.644s-20.868-37.875-29.298-47.293a13.786 13.786 0 0 0-1.54-1.507 7.88 7.88 0 0 0-2.758-.672c-11.302-1.346-49.352 2.327-75.65.625l12.278-16.415 5.442-7.279c29.601-3.363 65.976-15.473 82.377-7.258 17.767 8.873 47.381 74.155 47.381 74.155Z"/>
  <path fill="#37474F" d="M202.931 225.804c-6.499.841-4.649.511-11.134 1.419-3.182.444-19.146 2.63-22.039 3.539a.066.066 0 0 0-.033.024.064.064 0 0 0-.013.04c0 .014.004.028.013.039.008.012.02.02.033.025 3.034 0 18.951-2.517 22.12-3.014 6.471-1.023 4.601-.794 11.066-1.891a.094.094 0 0 0 .063-.096.093.093 0 0 0-.023-.056.093.093 0 0 0-.053-.029Zm-33.247 4.426c-4.326-7.238-24.003-42.941-27.952-44.353-3.566-1.278-74.983.208-76.02.215-.073 0-.08.114 0 .114 8.457-.107 73.733-.343 75.596.397 3.868 1.527 27.428 42.954 28.006 43.822.128.229.518.054.37-.195Z"/>
  <path fill="#263238" d="M40.216 174.104s-2.254 21.527 8.672 32.244c13.071 12.822 99.37 9.587 112.744 5.261 13.374-4.326 13.791-25.9-.828-30.906-13.905-4.756-75.568-7.487-77.028-8.072-1.46-.586-5.739-7.401-5.739-7.401l-37.82 8.874Z"/>
  <path fill="#37474F" d="M58.481 173.498c0-.1-.182-.067-.182 0a11.87 11.87 0 0 1-2.765 7.67c-2.018 2.368-5.065 3.693-7.803 5.072-.263.135-.068.545.208.464a23.87 23.87 0 0 0 4.83-2.079 11.75 11.75 0 0 0 3.633-3.02 10.41 10.41 0 0 0 2.079-8.107Zm24.703-2.206c-.606-.781-1.272-1.521-1.91-2.281-1.508-1.789-3.021-3.592-4.602-5.321-.148-.168-.438.067-.303.249 1.063 1.386 2.193 2.731 3.296 4.09l1.71 2.079a12.534 12.534 0 0 1 1.6 2.018c.41.767-.134 1.426-.928 1.514a2.786 2.786 0 0 1-1.924-.707 25.498 25.498 0 0 1-3.263-3.491c-.64-.713-1.271-1.426-1.917-2.133-.646-.706-1.413-1.46-2.1-2.206-.04-.047-.127 0-.087.074.6.814 1.15 1.675 1.75 2.489.598.814 1.204 1.635 1.816 2.442.612.807 1.19 1.507 1.81 2.24a7.55 7.55 0 0 0 1.843 1.642c1.144.672 3.128.814 3.734-.673a2.074 2.074 0 0 0-.525-2.025Z"/>
  <path fill="#37474F" d="M159.808 211.69c-4.608.087-9.209.356-13.811.45-4.601.095-9.136.128-13.703.081a464.833 464.833 0 0 1-27.502-1.07c-9.25-.672-19.227-1.56-28.416-2.832-4.4-.612-8.854-1.117-13.2-2.052a20.853 20.853 0 0 1-10.413-5.314c-5.947-5.772-8.261-14.262-9.217-22.369a89.42 89.42 0 0 1-.316-3.269c0-.074-.121-.074-.114 0 .538 8.315 1.83 16.986 7.057 23.667a20.866 20.866 0 0 0 8.517 6.613c4.117 1.648 8.684 2.018 13.03 2.623 9.224 1.252 19.24 2.22 28.518 2.94 9.277.72 18.702 1.177 28.066 1.312 9.365.135 18.729 0 28.087-.451 1.137-.06 2.28-.128 3.417-.222.061-.006.061-.107 0-.107Z"/>
  <path fill="#37474F" d="M172.093 191.568a14.797 14.797 0 0 0-6.163-8.819c-3.316-2.268-7.279-3.297-11.207-3.869-4.44-.672-8.934-.975-13.401-1.406-9.158-.897-18.326-1.72-27.502-2.469-9.162-.753-28.927-2.287-30.017-2.327-.101 0-.121.161 0 .168 8.846.982 16.899 1.83 25.766 2.637 8.866.807 17.82 1.655 26.721 2.536l13.306 1.346c4.111.423 8.336.841 12.19 2.428 3.31 1.346 6.284 3.552 7.966 6.768a15.831 15.831 0 0 1 1.345 10.239 18.002 18.002 0 0 1-4.319 8.672 15.336 15.336 0 0 1-8.019 4.837c-.807.174-1.789.302-2.536.45-.054 0-.115.135-.054.135 6.626.168 12.782-4.676 15.15-10.73a17.716 17.716 0 0 0 .774-10.596Z"/>
  <path fill="#EB9481" d="M72.985 121.025c4.972 14.323 15.157 35.816 19.704 37.801 7.576 3.303 25.188 5.55 35.615 5.066 3.29-.155.969-24.515-2.603-24.656-9.21-.363-22.927-.484-23.882-.72-1.729-.417-12.21-12.56-20.183-22.005-7.487-8.914-10.992-2.24-8.65 4.514Z"/>
  <path fill="#EB9481" d="M139.546 160.104c-1.427.451-1.198 1.204 1.298 2.14 2.496.935 13.165 2.516 12.298 6.189-.868 3.673-15.89 1.231-19.927-.673-4.036-1.904-9.909-6.317-9.909-6.317 3.02-.081 10.32-1.063 16.24-1.339Z"/>
  <path fill="#EB9481" d="M124.941 139.283c8.516 0 19.119-.518 27.393 4.359a4.707 4.707 0 0 1 2.079 2.321c3.754 2.119 3.875 4.528 3.875 4.528 2.893 3.041 2.691 5.516 2.691 5.516s4.379 2.536 3.283 5.436c-1.218 3.256-7.124-.942-11.78-1.265-10.676-.74-26.061 1.198-29.163 1.292l1.622-22.187Z"/>
  <path fill="#263238" d="M141.819 151.54c3.127.183 6.237.577 9.311 1.178a69.756 69.756 0 0 1 9.728 3.363c.019.01.042.012.063.005a.083.083 0 0 0 .052-.105.085.085 0 0 0-.041-.048c-5.463-3.195-12.782-4.81-19.099-4.507-.155-.02-.188.101-.014.114Zm-.484-6.505c3.034.437 8.369 1.251 16.913 5.543 0 0 .06 0 0-.047a32.662 32.662 0 0 0-16.893-5.624c-.195 0-.222.094-.02.128Zm-.202-3.492c5.14.949 8.255 2.2 13.253 4.447 0 0 .061 0 0-.054-5.382-3.148-7.73-3.679-13.273-4.574-.141-.041-.182.134.02.181Z"/>
  <path fill="#455A64" d="m123.723 138.886-1.346 26.566s-27.797-2.448-31.685-6.66c-3.889-4.211-15.978-28.611-18.34-38.541-2.36-9.929 3.768-10.763 9.305-4.433 5.536 6.33 19.691 21.649 20.431 21.803.74.155 21.635 1.265 21.635 1.265Z"/>
  <path fill="#263238" d="M117.096 158.086c.081-1.444.164-2.888.249-4.332.168-2.826.377-5.645.586-8.463.114-1.554.255-3.115.322-4.676 0-.094-.141-.101-.154 0-.471 2.778-.713 5.597-.942 8.403-.229 2.805-.404 5.57-.491 8.362-.047 1.601 0 3.195 0 4.803 0 .054.101.061.107 0 .088-1.372.243-2.731.323-4.097Zm-7.696 5.833c-7.824-1.144-16.663-2.886-18.735-5.127-3.896-4.218-15.95-28.611-18.34-38.541-.867-3.626-.605-6.054.364-7.339l36.711 51.007Z"/>
  <path fill="#455A64" d="m38.312 180.34 52.474-12.957c.706-.807-6.459-43.358-15.514-55.332-2.26-2.994-9.95-3.196-13.535-.471-17.733 13.481-23.398 68.067-23.425 68.76Z"/>
  <path fill="#EBEBEB" d="M129.212 135.354s11.188-5.18 11.181-12.109c-.006-6.929-14.538-11.302-14.551-16.731-.014-5.429 6.324-8.59 6.324-8.59s-9.997 3.43-9.99 10.265c.006 6.835 9.593 11.437 10.514 15.803 1.279 6.034-3.478 11.362-3.478 11.362Z" opacity=".6"/>
  <path fill="#EBEBEB" d="M129.764 135.354s-11.201-4.036-11.208-9.479c-.006-5.442 14.504-8.96 14.498-13.205-.007-4.245-6.344-6.728-6.344-6.728s10.01 2.691 10.017 8.073c.007 5.382-10.979 9.089-11.76 13.455-.78 4.366 4.797 7.884 4.797 7.884Z" opacity=".6"/>
  <path fill="#1F5967" d="m134.687 152.724-10.649.017.002 1.662 10.65-.017-.003-1.662Z"/>
  <path fill="#000" d="m134.687 152.724-10.649.017.001 1.097 10.65-.017-.002-1.097Z" opacity=".1"/>
  <path fill="#1F5967" d="M111.372 148.271a5.885 5.885 0 0 0 7.077 2.247 7.611 7.611 0 0 0 1.507-.794l-1.346-2.018a5.239 5.239 0 0 1-.8.45 3.528 3.528 0 0 1-4.42-1.231c-1.467-2.018-2.018-6.727-.518-8.537.101-.134.524-.35 2.24 0 .316.074.673.148 1.083.263.316.108.643.178.975.208l.041-1.204.114-1.204-.511-.128a15.369 15.369 0 0 0-2.422-.505c-1.258-.127-2.583 0-3.364 1.023-2.462 2.94-1.48 8.887.344 11.43Z"/>
  <path fill="#000" d="M118.617 147.746a5.125 5.125 0 0 1-.801.451l.673 2.348a7.636 7.636 0 0 0 1.507-.794l-1.379-2.005Zm-4.259-11.941.72 2.57c.316.074.673.148 1.083.262.316.108.643.178.976.209l.04-1.204.115-1.205-.512-.127a15.257 15.257 0 0 0-2.422-.505Z" opacity=".1"/>
  <path fill="#1F5967" d="M143.495 132.623s-1.258 10.858-3.458 15.433c-2.2 4.574-5.281 5.085-7.199 5.085h-6.962c-1.911 0-4.992-.504-7.205-5.065-2.214-4.561-3.512-15.426-3.512-15.426l28.336-.027Z"/>
  <path fill="#000" d="M141.994 141.638a43.157 43.157 0 0 1-.719 2.919l-23.856.041a47.686 47.686 0 0 1-.733-2.92l25.308-.04Zm-1.022 4.029c-.162.518-.33 1.009-.505 1.46l-22.2.034c-.182-.451-.35-.942-.518-1.46l23.223-.034Zm1.567-6.774c-.087.478-.175.962-.276 1.46l-25.839.04a46.978 46.978 0 0 1-.29-1.46l26.405-.04Z" opacity=".1"/>
  <path fill="#EB9481" d="M55.877 123.709c-7.581 20.72-7.285 38.831-4.325 41.817 6.451 6.513 34.49-.672 41.5-1.675 2.833-.397-5.724-23.048-8.684-22.274-6.97 1.83-16.893 5.268-17.25 5.167-.712-.202 0-6.465-.92-23.042-.727-13.414-7.22-8.463-10.32.007Z"/>
  <path fill="#EB9481" d="M119.794 137.433c.188 2.805-6.768 2.691-6.768 2.691a5.186 5.186 0 0 1 2.281 2.691c.673 2.018-2.254 3.956-2.254 3.956a6.392 6.392 0 0 1 1.965 3.215c.423 2.018-2.234 4.366-2.234 4.366a5.85 5.85 0 0 1-.06 3.916c-2.288 5.536-17.788 6.572-22.268 5.933l-7.292-21.756s12.432-9.21 18.708-9.869c3.485-.363 17.626.572 17.922 4.857Z"/>
  <path fill="#263238" d="M112.959 140.05c-3.734-.834-7.662-.774-11.436-.673a.066.066 0 0 0-.034.025.068.068 0 0 0-.013.039c0 .014.005.028.013.04.008.011.02.02.034.024 3.774.121 7.669.72 11.436.727a.093.093 0 0 0 .069-.091.09.09 0 0 0-.019-.057.087.087 0 0 0-.05-.034Zm.034 6.6a9.916 9.916 0 0 0-2.61 0 108.396 108.396 0 0 0-8.268 1.002c-.081 0-.081.141 0 .134a127.31 127.31 0 0 1 5.516-.491l2.765-.161c.872.015 1.743-.069 2.597-.249a.15.15 0 0 0 .051-.049.14.14 0 0 0 0-.137.133.133 0 0 0-.051-.049Zm-.276 7.709a6.945 6.945 0 0 0-2.348.141l-2.509.317c-1.675.201-3.364.396-5.032.538-.088 0-.081.141 0 .134 1.708-.134 3.424-.249 5.126-.397l2.516-.235a6.56 6.56 0 0 0 2.26-.417c.027-.014-.013-.074-.013-.081Zm.383 1.89a4.656 4.656 0 0 1-.841 3.135 6.61 6.61 0 0 1-2.583 2.066 28.02 28.02 0 0 1-6.209 2.139 41.193 41.193 0 0 1-6.479.962c-2.184.149-4.377.1-6.552-.148h.08c-1.628.289-3.269.558-4.904.807a195.91 195.91 0 0 1 4.824-1.204h.06c2.153.12 4.312.082 6.459-.114a51.136 51.136 0 0 0 6.384-.962 35.26 35.26 0 0 0 6.149-1.904 6.726 6.726 0 0 0 2.556-1.823 4.71 4.71 0 0 0 1.056-2.954Z"/>
  <path fill="#455A64" d="m83.412 141.153 4.676 25.477s-34.572 6.794-37.936-1.4c-3.363-8.193 1.01-34.356 6.674-44.662 5.664-10.307 9.075-4.75 9.708 2.69.632 7.441.914 22.376 1.07 22.369.154-.007 15.808-4.474 15.808-4.474Z"/>
  <path fill="#263238" d="m81.098 161.726-.672-4.286a328.468 328.468 0 0 1-1.238-8.389c-.216-1.547-.417-3.094-.673-4.635a.08.08 0 0 0-.162 0c.135 2.819.505 5.624.882 8.416.377 2.792.807 5.523 1.312 8.268.296 1.574.672 3.128 1.036 4.709 0 .054.114.04.107 0-.242-1.393-.383-2.738-.592-4.083Z"/>
  <path fill="#263238" d="M88.498 166.892a43.687 43.687 0 0 0-.518-2.61.149.149 0 0 0-.165-.102.149.149 0 0 0-.124.149c0 .807.101 1.608.182 2.408a103.447 103.447 0 0 1-14.531 1.891 87.28 87.28 0 0 1-14.874-.525c-1.205-.141-2.416-.283-3.606-.518a5.38 5.38 0 0 1-2.812-1.345c-1.595-1.528-2.019-3.788-2.2-5.907-.175-2.442-.142-4.911-.074-7.36.067-2.449.235-4.951.484-7.4.276-2.765.673-5.51 1.15-8.248.478-2.738.996-5.523 1.676-8.241 0-.06-.081-.087-.101 0a109.318 109.318 0 0 0-1.184 4.481v-1.897a.054.054 0 0 0-.054-.054.055.055 0 0 0-.054.054c-.13.487-.2.989-.209 1.493v.76c0 .155 0 .323.048.485a91.956 91.956 0 0 0-1.743 9.694 110.562 110.562 0 0 0-.787 15.217c.034 2.22.262 4.548 1.52 6.452a5.94 5.94 0 0 0 2.153 2.018c1.091.486 2.255.788 3.445.895a85.044 85.044 0 0 0 15.082.901 75.755 75.755 0 0 0 17.027-2.26.32.32 0 0 0 .29-.286.32.32 0 0 0-.02-.145Z"/>
  <path fill="#263238" d="M83.5 141.099a.178.178 0 0 0-.072-.135.163.163 0 0 0-.071-.033.174.174 0 0 0-.079 0c-1.346.296-2.691.673-4.037 1.05-1.345.376-2.69.672-3.989 1.056a126.526 126.526 0 0 0-7.46 2.254 26.057 26.057 0 0 0 0-3.835c-.061-1.48-.135-2.953-.222-4.433-.088-1.48-.175-3.048-.27-4.568a9.47 9.47 0 0 0 .27-1.151c.074-.55.087-1.108.04-1.661 0-.034-.06-.047-.067 0-.06.545-.175 1.09-.25 1.635 0 .121-.04.248-.053.369-.087-1.19-.182-2.381-.303-3.572 0-.04-.067-.04-.067 0-.047 2.987.054 5.967.141 8.961.04 1.48.088 2.96.155 4.44.02 1.308.141 2.613.363 3.902h-.074a30.946 30.946 0 0 0-4.11 1.736c-.054 0 0 .107.04.094 3.297-.962 6.553-2.072 9.849-3.021 1.668-.477 3.364-.942 5.005-1.426 1.642-.484 3.364-.908 4.978-1.453.047.182.088.37.148.552a.103.103 0 0 0 .118.084.106.106 0 0 0 .067-.042.101.101 0 0 0 .017-.076c-.02-.229-.047-.478-.067-.727ZM62.8 96.625a23.573 23.573 0 0 1-.148 4.231c-.276 1.083-2.725 2.227-2.725 2.227s2.785.989 3.58.801c.793-.189 2.071-2.22 2.071-2.22s-1.177 3.249-2.307 3.417c-.707.108 1.722.135 1.722.135a3.28 3.28 0 0 0 2.126-.982c.827-.936-4.32-7.61-4.32-7.61Z"/>
  <path fill="#EB9481" d="M73.2 120.016c-2.347.081-7.164-4.353-9.028-8.073-.128-.256.35-2.873.78-6.055.256-1.944.492-4.117.559-6.115l12.425 3.424a32.085 32.085 0 0 0-1.486 7.629c-.005.275.015.55.06.821v.141c.209 1.595.357 8.066-3.31 8.228Z"/>
  <path fill="#263238" d="M76.504 111.674a.707.707 0 0 1 0 .141c-.43.035-.862.035-1.292 0-7.124-.424-8.557-9.169-8.82-11.86l11.551 3.242a32.02 32.02 0 0 0-1.493 7.636c-.004.281.014.562.054.841Z"/>
  <path fill="#EB9481" d="M63.607 83.97c-1.587 4.374.074 17.33 3.088 20.358 4.36 4.386 11.834 5.18 15.648-.142 3.7-5.153 1.231-21.998-2.166-24.783-4.965-4.104-14.195-1.884-16.57 4.568Z"/>
  <path fill="#263238" d="M73.025 90.046c.36-.146.713-.31 1.057-.492.395-.122.74-.37.982-.706a.592.592 0 0 0-.168-.713 1.494 1.494 0 0 0-1.507 0 2.22 2.22 0 0 0-1.164 1.063.672.672 0 0 0 .8.848Zm8.645-.848a11.1 11.1 0 0 1-1.15-.188 1.884 1.884 0 0 1-1.137-.404.606.606 0 0 1-.04-.733 1.494 1.494 0 0 1 1.453-.424 2.206 2.206 0 0 1 1.406.672.671.671 0 0 1-.532 1.077Zm-7.017 10.965c.23.182.465.444.78.444.327-.037.642-.145.922-.316a.03.03 0 0 1 .023-.006c.008 0 .016.004.022.009a.044.044 0 0 1 .01.022.031.031 0 0 1-.007.022 1.186 1.186 0 0 1-1.07.579.916.916 0 0 1-.76-.706c-.02-.048.047-.074.08-.048Zm.667-2.711a2.973 2.973 0 0 0 2.119 1.13c.36.036.722.018 1.076-.053a.97.97 0 0 0 .202-.04l.188-.048a.215.215 0 0 0 .155-.215.388.388 0 0 0 0-.088v-.074a25.101 25.101 0 0 0-.209-1.695c.256.094 1.568.538 1.514.189a44.816 44.816 0 0 0-2.018-8.907.08.08 0 0 0-.078-.058.08.08 0 0 0-.077.058c.323 2.805 1.144 5.53 1.52 8.342a5.248 5.248 0 0 0-1.446-.29c-.094.034.35 1.965.35 2.267a.119.119 0 0 1 0 .034 4.144 4.144 0 0 1-3.175-.673c-.121-.007-.182.054-.121.121Z"/>
  <path fill="#263238" d="M78.084 98.226a3.594 3.594 0 0 1-1.345 1.238c-.298.147-.633.2-.962.154-.713-.12-.794-.76-.72-1.345.043-.3.12-.593.229-.874.818.573 1.8.863 2.798.827Z"/>
  <path fill="#FF9BBC" d="M76.773 99.464c-.298.147-.633.2-.962.154-.714-.12-.794-.76-.72-1.345a1.648 1.648 0 0 1 1.682 1.19Z"/>
  <path fill="#263238" d="M73.53 93.012c.048.234.163.449.33.62a.93.93 0 0 0 .713.262.843.843 0 0 0 .673-.404c.123-.204.195-.435.208-.673.01-.136.01-.274 0-.41a1.85 1.85 0 0 0-.242-.828c.02.208.02.418 0 .626a4.83 4.83 0 0 1-.088.558c-.094.377-.289.673-.578.673-.29 0-.552-.209-.673-.565a6.015 6.015 0 0 1-.316-1.164 2.691 2.691 0 0 0-.027 1.305Zm6.7-.659c.02.242.103.474.243.673a.942.942 0 0 0 .672.356.848.848 0 0 0 .707-.31c.146-.181.245-.396.29-.625.03-.135.05-.272.06-.41a1.89 1.89 0 0 0-.135-.848 2.734 2.734 0 0 1-.074.62 3.69 3.69 0 0 1-.161.544c-.142.357-.37.673-.673.612-.303-.06-.518-.276-.619-.673a6.728 6.728 0 0 1-.114-1.204 2.611 2.611 0 0 0-.195 1.265Zm-16.3 3.122c2.341-.814 3.095-8.86 3.095-8.86l.672 4.359a10.528 10.528 0 0 0 2.496-3.6 7.784 7.784 0 0 0-.053-4.345 18.836 18.836 0 0 0 6.014 2.69c1.13.236 8.375-.04 8.348-.55-.087-1.528-2.59-6.62-4.742-7.912-2.483-1.487-8.208-3.31-13.025-1.144-3.848 1.73-3.296 4.75-4.036 6.93 0 0-2.731 2.462-2.805 3.646-.121 2.543 3.182 9.108 4.036 8.786Z"/>
  <path fill="#EB9481" d="M65.827 94.573s-2.771-4.245-4.709-3.27c-1.937.976.067 7.064 2.254 7.959a2.254 2.254 0 0 0 3.054-1.11l-.599-3.579Z"/>
  <path fill="#263238" d="M61.75 93.032c-.033 0-.04.047 0 .061 1.534.673 2.301 2.146 2.826 3.653a1.252 1.252 0 0 0-1.85-.404.048.048 0 0 0 .04.088 1.38 1.38 0 0 1 1.507.531c.268.395.494.816.673 1.258.074.142.323.074.276-.087a.054.054 0 0 0 0-.034c.094-1.978-1.352-4.796-3.471-5.066Z"/>
  <path fill="#EBEBEB" d="m76.49 110.194-2.16 7.804-10.313-8.41-2.28 3.317s10.723 13.966 10.703 13.28l2.355-6.727 4.958 3.922-1.608-11.175-1.655-2.011Z"/>
  <path fill="#263238" d="M79.242 117.823c-.33-1.837-.606-3.694-1.016-5.51 0-.067-.121-.087-.128 0-.175 1.83 1.117 8.847 1.298 10.542-.208-.168-4.547-3.471-4.581-3.404-.552 1.09-2.28 6.021-2.388 6.465-1.696-2.22-8.154-10.259-10.091-12.318a.068.068 0 0 0-.04-.017.064.064 0 0 0-.043.012.066.066 0 0 0-.025.079c1.547 2.375 10.091 13.206 10.219 13.165.94-2.34 1.76-4.727 2.455-7.151.754.74 5.187 4.521 5.167 4.238a57.966 57.966 0 0 0-.827-6.101Z"/>
</svg>
