<svg xmlns="http://www.w3.org/2000/svg" width="282" height="268" fill="none" viewBox="0 0 282 268">
  <path fill="#F5F5F5" d="M140.591 267.17c77.646 0 140.59-34.852 140.59-77.844s-62.944-77.845-140.59-77.845S0 146.334 0 189.326s62.945 77.844 140.591 77.844Z"/>
  <path fill="#E6E6E6" d="M23.6 212.448c16.96 8.576 44.45 8.576 61.405 0 16.954-8.575 16.96-22.51 0-31.103-16.96-8.594-44.444-8.575-61.405 0-16.96 8.575-16.942 22.528 0 31.103Zm233.981 0c-16.954 8.576-44.45 8.576-61.405 0-16.954-8.575-16.954-22.51 0-31.103 16.955-8.594 44.451-8.575 61.405 0s16.942 22.528 0 31.103Zm-82.077-25.578-34.913-20.158-34.914 20.158 34.914 20.151 34.913-20.151Z"/>
  <path fill="#FFB3B2" d="M190.48 70.13c11.515-10.363 23.888-23.36 24.059-31.128-5.347-.122-6.572 0-10.069 2.653-3.112 2.364-15.883 18.528-20.213 21.327-5.733 1.44-16.048 3.118-21.016 3.21a3.591 3.591 0 0 1-2.395-.882c-1.794-1.544-3.191-1.495-5.145-2.45-1.531-.76-2.125-1.63-2.45-1.36-.324.27-.949 1.39-.098 2.634a9.924 9.924 0 0 0 1.954 1.923 19.969 19.969 0 0 1-5.378-1.39c-4.122-1.654-6.174-1.14-4.526 4.287 1.029 3.394 3.963 5.446 12.25 5.66 3.046.14 6.098.06 9.133-.239 6.064-.79 13.034-.912 17.983-1.537a10.952 10.952 0 0 0 5.911-2.708Z"/>
  <path fill="#1F5967" d="M215.115 38.666c-3.957-.73-8.685.306-11.84 3.362-3.154 3.057-9.99 11.026-9.99 11.026s3.289 6.167 8.239 7.386l4.9-5.347 8.691-16.428Z"/>
  <path fill="#000" d="M215.115 38.666c-3.957-.73-8.685.306-11.84 3.362-3.154 3.057-9.99 11.026-9.99 11.026s3.289 6.167 8.239 7.386l4.9-5.347 8.691-16.428Z" opacity=".1"/>
  <path fill="#FFB3B2" d="M237.154 185.314h-7.026v10.229h7.026v-10.229Zm-24.713-12.659-7.021.241.351 10.223 7.022-.241-.352-10.223Z"/>
  <path fill="#37474F" d="M236.688 85.443c0 6.738.87 50.104.87 50.104.165 1.936 1.972 5.513 1.58 12.906-.533 10.069-1.403 38.049-1.403 38.049s-3.295 3.265-7.962 0c0 0-6.358-38.013-7.62-47.997-1.096-8.709-2.964-32.371-2.964-32.371l-3.578 28.402s1.146 6.548 1.403 11.173c.257 4.624-4.128 30.76-4.128 30.76a7.685 7.685 0 0 1-7.644.294s-2.696-38.429-3.4-42.625c-.704-4.195 2.009-48.695 2.009-48.695h32.837Z"/>
  <path fill="#EBEBEB" d="M226.116 38.984c.527.129 3.547.84 6.419 1.599a5.573 5.573 0 0 1 4.153 5.396v39.464c-4.9 5.36-22.099 7.859-32.855 0V51.198c0-5.47 3.062-12.042 11.435-12.532l10.848.318Z"/>
  <path fill="#263238" d="M228.48 10.98a3.736 3.736 0 0 1 3.1 1.09c1.329 1.36 1.053 3.877 0 9.666l-4.11.471 1.01-11.227Zm-23.973-1.672a6.414 6.414 0 0 1-2.573-.527c-1.262-.723-1.593.71-.9 1.96a5.875 5.875 0 0 0 4.771 3.173c.037-.178 1.182-3.21 1.182-3.21l-2.48-1.396Z"/>
  <path fill="#263238" d="M210.913 23.438a8.03 8.03 0 1 0 0-16.061 8.03 8.03 0 0 0 0 16.061Z"/>
  <path fill="#FFB3B2" d="M226.551 22.207c.612.368 1.482-.808 2.236-1.592.753-.784 3.209-1.838 4.434.716 1.225 2.555-1.084 6.125-3.02 6.738-3.332 1.047-3.834-1.09-3.834-1.09l-.251 12.023s-2.187 5.341-8.097 6.125c-5.911.785-4.692-4.073-2.751-6.462V34.99s-3.019.46-4.489.227c-2.45-.38-4-2.31-4.741-4.967-1.195-4.288-1.648-7.706-.613-16.085 1.115-9.188 11.803-9.286 17.573-5.654 5.77 3.633 3.553 13.696 3.553 13.696Z"/>
  <path fill="#263238" d="M226.245 23.91c.288-.11 1.782-2.603 2.542-3.295 1.053-.962-.307-9.635-.307-9.635s1.066-3.29-1.016-5.47c-2.083-2.18-6.126-1.837-9.06-1.923-3.062-.11-6.357-.294-10.541-2.113-4.183-1.82-4.502-2.034-5.023-.196-.52 1.837-.716 6.051 1.783 8.875l2.082.76s1.121.998 5.029 1.476c2.936.32 5.897.32 8.833 0 1.133-.153 2.339.612 2.719 4.214.282 2.609 1.219 7.962 2.959 7.307Z"/>
  <path fill="#263238" d="m228.474 11.654 3.675-1.979a2.028 2.028 0 0 0-2.014-1.158 2.032 2.032 0 0 0-.785.233 2.197 2.197 0 0 0-.876 2.904Z"/>
  <path fill="#F59595" d="M215.275 35.009s5.475-1.103 7.386-2.12a6.315 6.315 0 0 0 2.647-2.621 8.594 8.594 0 0 1-1.501 3.063c-1.403 1.788-8.532 3.105-8.532 3.105v-1.427Z"/>
  <path fill="#263238" d="M215.275 20.841a1.102 1.102 0 1 0 1.096-1.145 1.134 1.134 0 0 0-1.096 1.145Z"/>
  <path fill="#F59595" d="M216.316 23.708a.152.152 0 0 0 .153.153.152.152 0 0 0 .153-.153.152.152 0 1 0-.306 0Zm1.231-.698a.14.14 0 0 0 .01.06.14.14 0 0 0 .033.052.15.15 0 0 0 .11.047.158.158 0 0 0 .159-.16.164.164 0 0 0-.001-.07.164.164 0 0 0-.087-.104.156.156 0 0 0-.136 0 .162.162 0 0 0-.055.043.149.149 0 0 0-.031.062.15.15 0 0 0-.002.07Zm.625 1.225a.152.152 0 0 0 .04.114.149.149 0 0 0 .113.045.16.16 0 0 0 0-.319.162.162 0 0 0-.109.05.162.162 0 0 0-.044.11Zm1.023-1.054a.164.164 0 0 0 .159.165.157.157 0 0 0 .111-.05.158.158 0 0 0 .032-.053.144.144 0 0 0 .01-.062.161.161 0 0 0-.044-.11.161.161 0 0 0-.109-.05.158.158 0 0 0-.159.16Zm-4.613-.331a.154.154 0 0 0 .307 0 .155.155 0 0 0-.262-.108.152.152 0 0 0-.045.108Zm.362 1.385a.152.152 0 0 0 .04.114.149.149 0 0 0 .113.045.151.151 0 0 0 .143-.099.156.156 0 0 0 .01-.06.154.154 0 0 0-.045-.109.152.152 0 0 0-.216 0 .152.152 0 0 0-.045.109Zm-1.703-.901a.152.152 0 1 0 .306 0c0-.04-.016-.08-.045-.108a.152.152 0 0 0-.261.108Zm-4.778-.544a.16.16 0 0 0 .154.158.16.16 0 0 0 .153-.165.158.158 0 0 0-.045-.11.157.157 0 0 0-.108-.05.16.16 0 0 0-.154.166Zm-1.078.753a.156.156 0 0 0 .043.112.148.148 0 0 0 .11.047.157.157 0 0 0 .109-.049.156.156 0 0 0 0-.219.155.155 0 0 0-.217 0 .152.152 0 0 0-.045.108Zm-.845-.809a.16.16 0 0 0 .153.165.164.164 0 0 0 .096-.057.162.162 0 0 0 .038-.105.162.162 0 0 0-.038-.105.164.164 0 0 0-.096-.057.161.161 0 0 0-.109.049.161.161 0 0 0-.044.11Zm-1.023.374a.164.164 0 0 0 .033.132.163.163 0 0 0 .123.058.157.157 0 0 0 .123-.058.164.164 0 0 0 .032-.063.164.164 0 0 0 .001-.07.159.159 0 0 0-.153-.16.16.16 0 0 0-.159.16Zm-.171-1.201a.16.16 0 0 0 .009.061.17.17 0 0 0 .033.053.154.154 0 0 0 .111.052.17.17 0 0 0 .096-.058.167.167 0 0 0-.096-.267.161.161 0 0 0-.109.049.161.161 0 0 0-.044.11Z"/>
  <path fill="#263238" d="m216.438 16.7 2.346 1.293a1.4 1.4 0 0 0-.545-1.837 1.305 1.305 0 0 0-1.016-.109 1.32 1.32 0 0 0-.785.654Z"/>
  <path fill="#F59595" d="m215.771 28.418-2.506.937a1.34 1.34 0 0 0 .676.776 1.323 1.323 0 0 0 1.027.057 1.396 1.396 0 0 0 .803-1.77Z"/>
  <path fill="#263238" d="m206.173 17.613 2.143-1.647a1.298 1.298 0 0 0-.858-.53 1.305 1.305 0 0 0-.979.242 1.42 1.42 0 0 0-.306 1.935Zm.661 2.916a1.1 1.1 0 0 0 .71.977 1.097 1.097 0 1 0 .386-2.122 1.127 1.127 0 0 0-1.096 1.145Z"/>
  <path fill="#F59595" d="m211.734 19.488-.361 6.596-3.443-1.176 3.804-5.42Z"/>
  <path fill="#263238" d="M230.128 192.076v-1.004c-.674.294-2.236 6.253-5.023 8.795-2.217 2.022-5.237 4.355-6.008 6.609-.772 2.254 4.208 3.639 6.278 3.271 2.407-.429 6.578-2.119 7.626-3.675 1.047-1.556 1.531-3.883 2.382-5.035.852-1.151 2.812-2.45 3.271-3.767.257-.729-.043-2.333-.398-3.675-.331-1.225-.68-2.609-1.102-2.493v.766c-.515.569-1.924 1.127-3.516 1.188-1.029.012-3.522-.208-3.51-.98Zm-24.427-11.123c-.368 0-.662.527-1.47 1.396a15.439 15.439 0 0 1-4.128 2.977c-2.634 1.317-7.749 3.338-10.064 4.386-1.446.649-1.378 2.395.116 3.387 1.495.992 5.102 1.715 9.439.741 2.358-.527 5.433-2.707 7.35-2.591 1.917.117 5.586.092 7.026-.894 1.439-.986.857-3.106.453-4.9-.441-1.979-1.078-5.011-1.733-4.9v.612c-.846 1.274-5.145 1.801-7.001.858l.012-1.072Zm13.506-74.819a26 26 0 0 1-9.8-5.611s1.892 3.535 7.503 6.824l-.306 19.319 2.603-20.532Z"/>
  <path fill="#9C5456" d="M90.707 70.13C79.186 59.767 66.79 46.77 66.647 39.002c5.342-.122 6.573 0 10.064 2.653 3.112 2.364 15.883 18.528 20.213 21.327 5.734 1.44 16.054 3.118 21.016 3.21a3.591 3.591 0 0 0 2.395-.882c1.794-1.544 3.191-1.495 5.145-2.45 1.537-.76 2.125-1.63 2.45-1.36.423.343.949 1.39.098 2.634a9.924 9.924 0 0 1-1.954 1.923 19.969 19.969 0 0 0 5.378-1.39c4.122-1.654 6.174-1.14 4.532 4.287-1.029 3.394-3.969 5.446-12.25 5.66-3.046.14-6.098.06-9.132-.239-6.064-.79-13.029-.912-17.978-1.537a10.915 10.915 0 0 1-5.917-2.708Z"/>
  <path fill="#263238" d="M60.063 3.679h1.783A15.313 15.313 0 0 1 77.159 18.99v18.143H58.17a13.42 13.42 0 0 1-13.407-13.432v-4.723A15.313 15.313 0 0 1 60.076 3.666l-.013.013Z"/>
  <path fill="#1F5967" d="m30.136 181.486.735-.76c-.564 1.182-2.904 6.37-2.665 10.339.19 3.155.76 7.142-.318 9.409-1.115 2.364-5.513-.723-6.775-2.524-1.506-2.089-2.86-5.408-2.609-8.226.178-1.978.876-3.853 1.078-5.347.202-1.495-.33-3.908.3-5.25.343-.741 1.752-1.727 3.014-2.492 1.157-.699 2.45-1.47 2.664-1.072l-.563.575c-.03.803.612 2.267 1.782 3.479.747.791 2.781 2.469 3.357 1.869Z"/>
  <path fill="#000" d="m30.136 181.486.735-.76c-.564 1.182-2.904 6.37-2.665 10.339.19 3.155.76 7.142-.318 9.409-1.115 2.364-5.513-.723-6.775-2.524-1.506-2.089-2.86-5.408-2.609-8.226.178-1.978.876-3.853 1.078-5.347.202-1.495-.33-3.908.3-5.25.343-.741 1.752-1.727 3.014-2.492 1.157-.699 2.45-1.47 2.664-1.072l-.563.575c-.03.803.612 2.267 1.782 3.479.747.791 2.781 2.469 3.357 1.869Z" opacity=".1"/>
  <path fill="#9C5456" d="M28.415 193.883c-.068-.968-.154-1.929-.209-2.824-.165-2.774.925-6.125 1.795-8.324.496-1.225 5.12-7.822 5.12-7.822l-6.455-5.512-3.675 6.737-.129.129v.043c-.815 1.347-1.225 6.652-1.709 9.917-.319 2.186-.14 5.512 1.69 7.858 1.765 2.211 3.394 2.573 3.572-.202Z"/>
  <path fill="#1F5967" d="M69.25 184.371a.497.497 0 0 0-.36.453c-.086.612-.184 1.727-.368 2.756-.251 1.372-.502 3.345-.257 4.435.245 1.09 2.811 2.64 4.538 2.866 1.728.227 4.698 1.838 6.089 3.063 1.703 1.495 5.31 2.695 7.736 2.726 2.842.03 5.072-.613 5.72-2.695.27-.864-.44-1.918-4.11-3.596 0 0-1.837-.931-2.909-1.568-5.31-3.203-7.135-5.047-8.722-8.385l-7.356-.055Z"/>
  <path fill="#000" d="M69.25 184.371a.497.497 0 0 0-.36.453c-.086.612-.184 1.727-.368 2.756-.251 1.372-.502 3.345-.257 4.435.245 1.09 2.811 2.64 4.538 2.866 1.728.227 4.698 1.838 6.089 3.063 1.703 1.495 5.31 2.695 7.736 2.726 2.842.03 5.072-.613 5.72-2.695.27-.864-.44-1.918-4.11-3.596 0 0-1.837-.931-2.909-1.568-5.31-3.203-7.135-5.047-8.722-8.385l-7.356-.055Z" opacity=".1"/>
  <path fill="#9C5456" d="M78.635 187.151a9.345 9.345 0 0 1-1.464-4.667l-.117-4.526h-7.828v7.387c.442 3.111 3.375 3.479 5.826 5.2 1.224.857 5.99 4.52 9.187 5.114 2.61.478 3.583-.551 3.932-1.286a51.797 51.797 0 0 1-9.536-7.222Z"/>
  <path fill="#37474F" d="M43.954 137.195a30.343 30.343 0 0 0-7.963 11.245c-2.413 6.144-9.328 24.146-9.328 24.146s3.026 5.31 7.142 5.672c0 0 19.545-28.746 21.793-35.465 2.279-3.43 5.127-20.323 7.19-32.01l.074.129 3.516 24.794a53.17 53.17 0 0 0-1.966 8.912c-.612 6.083 4.539 35.526 4.539 35.526s3.497 1.838 8.336.215c0 0 .778-38.393 1.33-45.725.918-12.305 1.365-47.01-.889-54.293l-32.249 1.8c-2.676 7.73-2.885 12.668-2.542 21.145.319 8.759 1.017 33.909 1.017 33.909Z"/>
  <path fill="#263238" d="m62.844 110.912 1.837-11.448s7.749-1.611 11.265-4.9c0 0-3.675 4.587-9.188 6.088l-2.058 8.814 1.403 24.335-3.259-22.889Z"/>
  <path fill="#1F5967" d="M55.402 39.333c-7.234.496-9.506 3.46-9.555 7.816a32.65 32.65 0 0 0 1.733 10.223l3.283 11.135s-2.72 6.174-5.414 13.672c12.654 7.062 28.45 3.35 32.26-1.801.16-1.097-.82-9.641-1.42-15.227 2.23-5.586 2.817-9.133 1.874-12.826-1.746-6.86-8.52-13.543-11.515-13.304l-11.246.312Z"/>
  <path fill="#000" d="M55.402 39.333c-7.234.496-9.506 3.46-9.555 7.816a32.65 32.65 0 0 0 1.733 10.223l3.283 11.135s-2.72 6.174-5.414 13.672c12.654 7.062 28.45 3.35 32.26-1.801.16-1.097-.82-9.641-1.42-15.227 2.23-5.586 2.817-9.133 1.874-12.826-1.746-6.86-8.52-13.543-11.515-13.304l-11.246.312Z" opacity=".1"/>
  <path fill="#1F5967" d="M71.462 84.347 60.308 72.323 46.073 50.701a33.62 33.62 0 0 0 1.507 6.67l3.283 11.136s-2.72 6.174-5.414 13.672c8.863 4.93 19.27 4.587 26.013 2.168Z"/>
  <path fill="#000" d="M71.462 84.347 60.308 72.323 46.073 50.701a33.62 33.62 0 0 0 1.507 6.67l3.283 11.136s-2.72 6.174-5.414 13.672c8.863 4.93 19.27 4.587 26.013 2.168Z" opacity=".1"/>
  <path fill="#263238" d="m44.426 8.879 2.192 3.516a2.01 2.01 0 0 1-2.854-.613 2.18 2.18 0 0 1 .662-2.903Z"/>
  <path fill="#263238" d="m42.03 12.89 4.105-.612a2.016 2.016 0 0 1-1.71 2.407 2.174 2.174 0 0 1-2.394-1.794Z"/>
  <path fill="#9C5456" d="M71.83 10.226c1.709 1.011 3.822 5.317 3.614 14.333-.178 7.644-2.653 9.531-3.896 10.076-1.244.545-3.645.215-5.978-.177v4.587s3.228 3.749 3.02 5.85c-.209 2.1-4.656 2.603-7.67.545a19.404 19.404 0 0 1-4.948-5.182V29.171s-1.575 2.101-4.153.393c-2.579-1.71-2.67-5.948-1.176-7.467 1.494-1.52 4.722-1.041 5.329 1.06 0 0 3.718.134 8.673-2.585a13.917 13.917 0 0 0 7.185-10.346Z"/>
  <path fill="#263238" d="M66.054 22.636a.962.962 0 1 1-1.011-.95.98.98 0 0 1 1.01.95Z"/>
  <path fill="#7D3336" d="m67.168 29.116 2.23.717a1.151 1.151 0 0 1-1.452.796 1.225 1.225 0 0 1-.778-1.513Z"/>
  <path fill="#263238" d="m73.937 19.69-1.948-1.354a1.145 1.145 0 0 1 1.617-.33 1.225 1.225 0 0 1 .33 1.684Zm-.447 2.266a.962.962 0 1 1-1.011-.95.98.98 0 0 1 1.01.95Z"/>
  <path fill="#7D3336" d="m68.792 21.393.153 5.788 3.044-.943-3.197-4.845ZM65.57 34.458c-2.45-.319-7.516-1.77-8.3-3.774a5.152 5.152 0 0 0 1.77 2.555c1.513 1.292 6.53 2.75 6.53 2.75v-1.531Z"/>
  <path fill="#1F5967" d="m140.591 141.041-47.115-27.232V72.176l-.992-.57v-13.89l48.107 27.777v55.549Z"/>
  <path fill="#000" d="m140.591 141.041-47.115-27.232V72.176l-.992-.57v-13.89l48.107 27.777v55.549Z" opacity=".1"/>
  <path fill="#000" d="m140.591 99.378-16.869-9.739-.006-13.91-1.158-.65-.006 13.886-29.076-16.789v1.997l29.076 16.783-.006 39.666 1.182.68-.006-39.672 16.869 9.739v-1.991Z" opacity=".15"/>
  <path fill="#1F5967" d="m140.591 141.041 46.857-27.036V72.323l1.25-.716V57.715l-48.107 27.777v55.549Z"/>
  <path fill="#000" d="m187.448 72.323-28.819 16.642-.006-13.886-1.158.65v13.91l-16.874 9.739v1.991l16.868-9.733-.006 39.666 1.182-.68-.006-39.654 28.819-16.624v-2.02Z" opacity=".1"/>
  <path fill="#1F5967" d="m188.698 57.715-48.107-27.772-48.107 27.772 48.107 27.777 48.107-27.777Z"/>
  <path fill="#fff" d="m188.698 57.715-48.107-27.772-48.107 27.772 48.107 27.777 48.107-27.777Z" opacity=".4"/>
  <path fill="#000" d="m132.493 58.266-22.994-10.352 1.023-.612 23.19 10.419m14.97.545 22.994-10.352-1.029-.612-23.19 10.419m11.166 17.359-17.071-12.673V62.4l-.961-.717-.007.006v-.006l-.967.717.006.006-17.077 12.672 1.164.65 16.874-12.606 16.881 12.606 1.158-.65Z" opacity=".15"/>
  <path fill="#37474F" d="M170.659 68.134v56.927l-12.024 6.946-.012-56.928 12.036-6.945Z"/>
  <path fill="#263238" d="m158.635 132.007-1.182-.705 1.182-.68v1.385Zm-48.113-63.873v56.927l12.024 6.946.012-56.928-12.036-6.945Z"/>
  <path fill="#000" d="m122.546 132.007 1.182-.705-1.182-.68v1.385Z"/>
  <path fill="#455A64" d="m122.558 75.08 18.039-13.39 6.878-3.975 23.184-10.413-12.024-6.946-18.038 13.39-6.873 3.975-23.202 10.413 12.036 6.945Z"/>
  <path fill="#263238" d="m133.724 57.72-1.225.546 4.049 1.795 3.081 2.34.968-.717-3.008-2.23-3.865-1.733Z"/>
  <path fill="#455A64" d="m158.623 75.08-21.034-15.626-27.067-12.152 12.03-6.946 21.052 15.625 27.055 12.153-12.036 6.945Z"/>
  <path fill="#37474F" d="M136.818 55.436s-14.131 11.73-37.205 9.06c0 0 9.801 6.412 21.781 4.96 0 0-1.721 4.374-11.815 9.697 0 0 25.217.232 31.734-20.703l-4.495-3.014Z"/>
  <path fill="#263238" d="M123.532 76.47c6.983-2.622 14.602-7.791 17.763-18.002l-4.496-3.014a39.961 39.961 0 0 1-8.887 5.09s4.9 2.144 9.898.821a24.59 24.59 0 0 1-14.278 15.105Z"/>
  <path fill="#37474F" d="M105.487 40.093s2.806-3.283 11.411-1.801c5.195.9 14.015 6.952 18.376 17.034.551 1.274 1.788 1.703 2.45 2.56.154.192.322.372.502.54l2.726.03c0-9.42-5.286-18.927-10.284-24.427-4.998-5.5-13.231-8.19-19.098-8.398a13.17 13.17 0 0 0-6.052 1.164c-1.599 4.453-2.26 8.87-.031 13.298Z"/>
  <path fill="#263238" d="M134.674 54.058s4.9-1.654 2.885-9.506a33.504 33.504 0 0 1 3.375 13.91l-2.726-.03a4.808 4.808 0 0 1-.502-.54c-.662-.857-1.899-1.286-2.45-2.56-.178-.441-.38-.858-.582-1.274Z"/>
  <path fill="#37474F" d="M110.51 46.126a19.601 19.601 0 0 1-5.023-6.04c-2.235-4.428-1.574-8.844 0-13.31-5.047 2.23-8.06 8.79-9.187 14.088-.613 2.965-.686 5.513-.184 6.738 1.415 3.332 9.702 16.795 45.197 10.866l-.036-3.73c-8.888-.551-24.409-3.259-30.767-8.612Z"/>
  <path fill="#263238" d="M105.487 40.093s-.422-10.376 6.083-14.462a13.17 13.17 0 0 0-6.052 1.164c-1.599 4.453-2.26 8.87-.031 13.298Z"/>
  <path fill="#37474F" d="M144.364 55.436s14.13 11.73 37.204 9.06c0 0-9.8 6.412-21.781 4.96 0 0 1.721 4.374 11.815 9.697 0 0-25.217.232-31.734-20.703l4.496-3.014Z"/>
  <path fill="#263238" d="M143.371 61.353c4.974 1.323 9.899-.82 9.899-.82l-.925-.417-.141-.062-.821-.385-.184-.086-.747-.374a1.846 1.846 0 0 1-.184-.098c-.239-.116-.465-.239-.692-.355l-.184-.098-.612-.35-.178-.097-.575-.33-.16-.093-.539-.306-.147-.086-.465-.294-.135-.085-.41-.27-.123-.08-.355-.239-.104-.073-.3-.208-.092-.068-.239-.171-.08-.061-.177-.135-.08-.062-.11-.08-.074-.054-.037-.037-.042-.03-1.47.986-3.026 2.027c6.511 20.936 31.728 20.703 31.734 20.703-12.973-.613-26.601-10.456-28.225-17.812Z"/>
  <path fill="#37474F" d="M175.694 40.093s-2.806-3.283-11.411-1.801c-5.194.9-14.015 6.952-18.376 17.034-.551 1.274-1.788 1.703-2.45 2.56a4.894 4.894 0 0 1-.502.54l-2.726.03c0-9.42 5.286-18.927 10.284-24.427 4.998-5.5 13.231-8.19 19.099-8.398 2.08-.096 4.154.303 6.051 1.164 1.599 4.453 2.291 8.87.031 13.298Z"/>
  <path fill="#263238" d="M146.508 54.058s-4.901-1.654-2.885-9.506a33.473 33.473 0 0 0-3.375 13.91l2.725-.03a4.94 4.94 0 0 0 .503-.54c.661-.857 1.898-1.286 2.45-2.56.177-.441.379-.858.582-1.274Z"/>
  <path fill="#37474F" d="M170.671 46.126a19.601 19.601 0 0 0 5.023-6.04c2.235-4.428 1.574-8.844 0-13.31 5.047 2.23 8.061 8.79 9.188 14.088.612 2.965.686 5.513.183 6.738-1.415 3.332-9.702 16.795-45.197 10.866l.037-3.73c8.887-.551 24.408-3.259 30.766-8.612Z"/>
  <path fill="#263238" d="M175.694 40.093s.422-10.376-6.082-14.462c2.08-.096 4.154.303 6.051 1.164 1.599 4.453 2.291 8.87.031 13.298Z"/>
  <path fill="#455A64" d="M145.491 55.994a2.05 2.05 0 0 0-1.225-1.66 9.57 9.57 0 0 0-3.675-.527 9.014 9.014 0 0 0-3.761.612 1.967 1.967 0 0 0-1.109 1.593c-.129 1.115-.208 3.001.527 4.073a6.5 6.5 0 0 0 4.355 1.562 6.4 6.4 0 0 0 4.33-1.562c.729-1.09.656-2.977.558-4.091Z"/>
  <path fill="#9C5456" d="M58.973 76.433c-12.648-19.08-18.761-34.766-8.514-36.138 3.13.729 5.335 4.336 8.067 12.379 0 0 5.604 12.14 8.122 17.334 4.716 3.78 13.8 12.25 18.375 14.167.815.331 2.01-.38 2.836-.673 2.23-.778 3.516-.233 5.69-.423 1.703-.147 2.573-.741 2.781-.374a1.874 1.874 0 0 1-.612 2.555c-.656.5-1.435.813-2.254.906 0 0 1.029.778 4.986.766 4.44 0 6.168 1.182 2.664 5.641-2.199 2.787-5.678 3.632-13.475.827a63.636 63.636 0 0 1-8.416-3.54c-5.36-2.94-3.461-1.71-7.675-4.38-3.412-2.162-11.344-7.172-12.575-9.047Z"/>
  <path fill="#FFB3B2" d="M222.208 76.433c15.044-20.482 20.605-34.478 10.352-35.85-3.124.729-5.335 4.342-8.067 12.385 0 0-7.442 11.852-9.953 17.046-4.723 3.78-13.807 12.25-18.376 14.168-.808.33-2.009-.38-2.836-.674-2.229-.778-3.516-.233-5.69-.423-1.703-.147-2.573-.741-2.781-.373a1.877 1.877 0 0 0 .613 2.554c.655.5 1.434.813 2.254.906 0 0-1.029.778-4.986.766-4.435 0-6.162 1.182-2.665 5.641 2.199 2.787 5.678 3.632 13.476.827a63.67 63.67 0 0 0 8.416-3.54c5.365-2.94 3.46-1.71 7.674-4.38 3.412-2.168 11.252-7.258 12.569-9.053Z"/>
  <path fill="#1F5967" d="M231.243 40.24s3.632 0 5.463 1.788c1.832 1.789 2.518 5.078.668 10.131-1.85 5.053-6.903 13.322-6.903 13.322s-5.954.325-11.246-5.04l5.28-9.838s2.04-7.405 6.738-10.363Z"/>
  <path fill="#000" d="M231.243 40.24s3.632 0 5.463 1.788c1.832 1.789 2.518 5.078.668 10.131-1.85 5.053-6.903 13.322-6.903 13.322s-5.954.325-11.246-5.04l5.28-9.838s2.04-7.405 6.738-10.363Z" opacity=".1"/>
</svg>
